ISO-10303-21;
HEADER;
/* Generated by software containing ST-Developer
 * from STEP Tools, Inc. (www.steptools.com) 
 */

FILE_DESCRIPTION(
/* description */ (''),
/* implementation_level */ '2;1');

FILE_NAME(
/* name */ 'Inser blank STEP.step',
/* time_stamp */ '2026-02-09T19:44:10+01:00',
/* author */ (''),
/* organization */ (''),
/* preprocessor_version */ 'ST-DEVELOPER v20.1',
/* originating_system */ 'Autodesk Translation Framework v14.24.0.0',
/* authorisation */ '');

FILE_SCHEMA (('AUTOMOTIVE_DESIGN { 1 0 10303 214 3 1 1 }'));
ENDSEC;

DATA;
#10=MECHANICAL_DESIGN_GEOMETRIC_PRESENTATION_REPRESENTATION('',(#13),#1657);
#11=SHAPE_REPRESENTATION_RELATIONSHIP('SRR','None',#1664,#12);
#12=ADVANCED_BREP_SHAPE_REPRESENTATION('',(#14),#1656);
#13=STYLED_ITEM('',(#1674),#14);
#14=MANIFOLD_SOLID_BREP('Einsatz',#1037);
#15=FACE_BOUND('',#139,.T.);
#16=FACE_BOUND('',#140,.T.);
#17=FACE_BOUND('',#141,.T.);
#18=FACE_BOUND('',#142,.T.);
#19=FACE_OUTER_BOUND('',#79,.T.);
#20=FACE_OUTER_BOUND('',#80,.T.);
#21=FACE_OUTER_BOUND('',#81,.T.);
#22=FACE_OUTER_BOUND('',#82,.T.);
#23=FACE_OUTER_BOUND('',#83,.T.);
#24=FACE_OUTER_BOUND('',#84,.T.);
#25=FACE_OUTER_BOUND('',#85,.T.);
#26=FACE_OUTER_BOUND('',#86,.T.);
#27=FACE_OUTER_BOUND('',#87,.T.);
#28=FACE_OUTER_BOUND('',#88,.T.);
#29=FACE_OUTER_BOUND('',#89,.T.);
#30=FACE_OUTER_BOUND('',#90,.T.);
#31=FACE_OUTER_BOUND('',#91,.T.);
#32=FACE_OUTER_BOUND('',#92,.T.);
#33=FACE_OUTER_BOUND('',#93,.T.);
#34=FACE_OUTER_BOUND('',#94,.T.);
#35=FACE_OUTER_BOUND('',#95,.T.);
#36=FACE_OUTER_BOUND('',#96,.T.);
#37=FACE_OUTER_BOUND('',#97,.T.);
#38=FACE_OUTER_BOUND('',#98,.T.);
#39=FACE_OUTER_BOUND('',#99,.T.);
#40=FACE_OUTER_BOUND('',#100,.T.);
#41=FACE_OUTER_BOUND('',#101,.T.);
#42=FACE_OUTER_BOUND('',#102,.T.);
#43=FACE_OUTER_BOUND('',#103,.T.);
#44=FACE_OUTER_BOUND('',#104,.T.);
#45=FACE_OUTER_BOUND('',#105,.T.);
#46=FACE_OUTER_BOUND('',#106,.T.);
#47=FACE_OUTER_BOUND('',#107,.T.);
#48=FACE_OUTER_BOUND('',#108,.T.);
#49=FACE_OUTER_BOUND('',#109,.T.);
#50=FACE_OUTER_BOUND('',#110,.T.);
#51=FACE_OUTER_BOUND('',#111,.T.);
#52=FACE_OUTER_BOUND('',#112,.T.);
#53=FACE_OUTER_BOUND('',#113,.T.);
#54=FACE_OUTER_BOUND('',#114,.T.);
#55=FACE_OUTER_BOUND('',#115,.T.);
#56=FACE_OUTER_BOUND('',#116,.T.);
#57=FACE_OUTER_BOUND('',#117,.T.);
#58=FACE_OUTER_BOUND('',#118,.T.);
#59=FACE_OUTER_BOUND('',#119,.T.);
#60=FACE_OUTER_BOUND('',#120,.T.);
#61=FACE_OUTER_BOUND('',#121,.T.);
#62=FACE_OUTER_BOUND('',#122,.T.);
#63=FACE_OUTER_BOUND('',#123,.T.);
#64=FACE_OUTER_BOUND('',#124,.T.);
#65=FACE_OUTER_BOUND('',#125,.T.);
#66=FACE_OUTER_BOUND('',#126,.T.);
#67=FACE_OUTER_BOUND('',#127,.T.);
#68=FACE_OUTER_BOUND('',#128,.T.);
#69=FACE_OUTER_BOUND('',#129,.T.);
#70=FACE_OUTER_BOUND('',#130,.T.);
#71=FACE_OUTER_BOUND('',#131,.T.);
#72=FACE_OUTER_BOUND('',#132,.T.);
#73=FACE_OUTER_BOUND('',#133,.T.);
#74=FACE_OUTER_BOUND('',#134,.T.);
#75=FACE_OUTER_BOUND('',#135,.T.);
#76=FACE_OUTER_BOUND('',#136,.T.);
#77=FACE_OUTER_BOUND('',#137,.T.);
#78=FACE_OUTER_BOUND('',#138,.T.);
#79=EDGE_LOOP('',(#641,#642,#643,#644));
#80=EDGE_LOOP('',(#645,#646,#647,#648));
#81=EDGE_LOOP('',(#649,#650,#651,#652));
#82=EDGE_LOOP('',(#653,#654,#655,#656,#657,#658));
#83=EDGE_LOOP('',(#659,#660,#661,#662,#663,#664));
#84=EDGE_LOOP('',(#665,#666,#667,#668));
#85=EDGE_LOOP('',(#669,#670,#671,#672));
#86=EDGE_LOOP('',(#673,#674,#675,#676));
#87=EDGE_LOOP('',(#677,#678,#679,#680));
#88=EDGE_LOOP('',(#681,#682,#683,#684));
#89=EDGE_LOOP('',(#685,#686,#687,#688));
#90=EDGE_LOOP('',(#689,#690,#691,#692));
#91=EDGE_LOOP('',(#693,#694,#695,#696));
#92=EDGE_LOOP('',(#697,#698,#699,#700));
#93=EDGE_LOOP('',(#701,#702,#703,#704,#705,#706));
#94=EDGE_LOOP('',(#707,#708,#709,#710));
#95=EDGE_LOOP('',(#711,#712,#713,#714));
#96=EDGE_LOOP('',(#715,#716,#717,#718));
#97=EDGE_LOOP('',(#719,#720,#721,#722));
#98=EDGE_LOOP('',(#723,#724,#725,#726));
#99=EDGE_LOOP('',(#727,#728,#729,#730));
#100=EDGE_LOOP('',(#731,#732,#733,#734));
#101=EDGE_LOOP('',(#735,#736,#737,#738));
#102=EDGE_LOOP('',(#739,#740,#741,#742));
#103=EDGE_LOOP('',(#743,#744,#745,#746,#747,#748));
#104=EDGE_LOOP('',(#749,#750,#751,#752));
#105=EDGE_LOOP('',(#753,#754,#755,#756));
#106=EDGE_LOOP('',(#757,#758,#759,#760));
#107=EDGE_LOOP('',(#761,#762,#763,#764));
#108=EDGE_LOOP('',(#765,#766,#767,#768));
#109=EDGE_LOOP('',(#769,#770,#771,#772));
#110=EDGE_LOOP('',(#773,#774,#775,#776));
#111=EDGE_LOOP('',(#777,#778,#779,#780));
#112=EDGE_LOOP('',(#781,#782,#783,#784));
#113=EDGE_LOOP('',(#785,#786,#787,#788,#789,#790));
#114=EDGE_LOOP('',(#791,#792,#793,#794));
#115=EDGE_LOOP('',(#795,#796,#797,#798));
#116=EDGE_LOOP('',(#799,#800,#801,#802));
#117=EDGE_LOOP('',(#803,#804,#805,#806));
#118=EDGE_LOOP('',(#807,#808,#809,#810));
#119=EDGE_LOOP('',(#811,#812,#813,#814));
#120=EDGE_LOOP('',(#815,#816,#817,#818));
#121=EDGE_LOOP('',(#819,#820,#821,#822));
#122=EDGE_LOOP('',(#823,#824,#825,#826));
#123=EDGE_LOOP('',(#827,#828,#829,#830,#831,#832));
#124=EDGE_LOOP('',(#833,#834,#835,#836));
#125=EDGE_LOOP('',(#837,#838,#839,#840));
#126=EDGE_LOOP('',(#841,#842,#843,#844));
#127=EDGE_LOOP('',(#845,#846,#847,#848));
#128=EDGE_LOOP('',(#849,#850,#851,#852));
#129=EDGE_LOOP('',(#853,#854,#855,#856));
#130=EDGE_LOOP('',(#857,#858,#859,#860));
#131=EDGE_LOOP('',(#861,#862,#863,#864));
#132=EDGE_LOOP('',(#865,#866,#867,#868));
#133=EDGE_LOOP('',(#869,#870,#871,#872));
#134=EDGE_LOOP('',(#873,#874,#875,#876));
#135=EDGE_LOOP('',(#877,#878,#879,#880));
#136=EDGE_LOOP('',(#881,#882,#883,#884));
#137=EDGE_LOOP('',(#885,#886,#887,#888));
#138=EDGE_LOOP('',(#889,#890,#891,#892));
#139=EDGE_LOOP('',(#893,#894,#895,#896,#897,#898));
#140=EDGE_LOOP('',(#899,#900,#901,#902,#903,#904));
#141=EDGE_LOOP('',(#905,#906,#907,#908,#909,#910));
#142=EDGE_LOOP('',(#911,#912,#913,#914,#915,#916));
#143=LINE('',#1375,#281);
#144=LINE('',#1377,#282);
#145=LINE('',#1379,#283);
#146=LINE('',#1380,#284);
#147=LINE('',#1384,#285);
#148=LINE('',#1386,#286);
#149=LINE('',#1388,#287);
#150=LINE('',#1389,#288);
#151=LINE('',#1392,#289);
#152=LINE('',#1394,#290);
#153=LINE('',#1395,#291);
#154=LINE('',#1397,#292);
#155=LINE('',#1399,#293);
#156=LINE('',#1400,#294);
#157=LINE('',#1403,#295);
#158=LINE('',#1404,#296);
#159=LINE('',#1405,#297);
#160=LINE('',#1409,#298);
#161=LINE('',#1411,#299);
#162=LINE('',#1413,#300);
#163=LINE('',#1414,#301);
#164=LINE('',#1417,#302);
#165=LINE('',#1419,#303);
#166=LINE('',#1420,#304);
#167=LINE('',#1423,#305);
#168=LINE('',#1425,#306);
#169=LINE('',#1426,#307);
#170=LINE('',#1429,#308);
#171=LINE('',#1431,#309);
#172=LINE('',#1432,#310);
#173=LINE('',#1435,#311);
#174=LINE('',#1437,#312);
#175=LINE('',#1438,#313);
#176=LINE('',#1440,#314);
#177=LINE('',#1441,#315);
#178=LINE('',#1444,#316);
#179=LINE('',#1446,#317);
#180=LINE('',#1447,#318);
#181=LINE('',#1450,#319);
#182=LINE('',#1451,#320);
#183=LINE('',#1454,#321);
#184=LINE('',#1455,#322);
#185=LINE('',#1460,#323);
#186=LINE('',#1462,#324);
#187=LINE('',#1464,#325);
#188=LINE('',#1465,#326);
#189=LINE('',#1468,#327);
#190=LINE('',#1470,#328);
#191=LINE('',#1471,#329);
#192=LINE('',#1474,#330);
#193=LINE('',#1476,#331);
#194=LINE('',#1477,#332);
#195=LINE('',#1480,#333);
#196=LINE('',#1482,#334);
#197=LINE('',#1483,#335);
#198=LINE('',#1486,#336);
#199=LINE('',#1488,#337);
#200=LINE('',#1489,#338);
#201=LINE('',#1491,#339);
#202=LINE('',#1492,#340);
#203=LINE('',#1495,#341);
#204=LINE('',#1497,#342);
#205=LINE('',#1498,#343);
#206=LINE('',#1501,#344);
#207=LINE('',#1502,#345);
#208=LINE('',#1505,#346);
#209=LINE('',#1506,#347);
#210=LINE('',#1511,#348);
#211=LINE('',#1513,#349);
#212=LINE('',#1515,#350);
#213=LINE('',#1516,#351);
#214=LINE('',#1519,#352);
#215=LINE('',#1521,#353);
#216=LINE('',#1522,#354);
#217=LINE('',#1525,#355);
#218=LINE('',#1527,#356);
#219=LINE('',#1528,#357);
#220=LINE('',#1531,#358);
#221=LINE('',#1533,#359);
#222=LINE('',#1534,#360);
#223=LINE('',#1537,#361);
#224=LINE('',#1539,#362);
#225=LINE('',#1540,#363);
#226=LINE('',#1542,#364);
#227=LINE('',#1543,#365);
#228=LINE('',#1546,#366);
#229=LINE('',#1548,#367);
#230=LINE('',#1549,#368);
#231=LINE('',#1552,#369);
#232=LINE('',#1553,#370);
#233=LINE('',#1556,#371);
#234=LINE('',#1557,#372);
#235=LINE('',#1562,#373);
#236=LINE('',#1564,#374);
#237=LINE('',#1566,#375);
#238=LINE('',#1567,#376);
#239=LINE('',#1570,#377);
#240=LINE('',#1572,#378);
#241=LINE('',#1573,#379);
#242=LINE('',#1576,#380);
#243=LINE('',#1578,#381);
#244=LINE('',#1579,#382);
#245=LINE('',#1582,#383);
#246=LINE('',#1584,#384);
#247=LINE('',#1585,#385);
#248=LINE('',#1588,#386);
#249=LINE('',#1590,#387);
#250=LINE('',#1591,#388);
#251=LINE('',#1593,#389);
#252=LINE('',#1594,#390);
#253=LINE('',#1597,#391);
#254=LINE('',#1599,#392);
#255=LINE('',#1600,#393);
#256=LINE('',#1603,#394);
#257=LINE('',#1604,#395);
#258=LINE('',#1607,#396);
#259=LINE('',#1608,#397);
#260=LINE('',#1612,#398);
#261=LINE('',#1613,#399);
#262=LINE('',#1616,#400);
#263=LINE('',#1617,#401);
#264=LINE('',#1619,#402);
#265=LINE('',#1622,#403);
#266=LINE('',#1623,#404);
#267=LINE('',#1626,#405);
#268=LINE('',#1627,#406);
#269=LINE('',#1629,#407);
#270=LINE('',#1632,#408);
#271=LINE('',#1633,#409);
#272=LINE('',#1636,#410);
#273=LINE('',#1637,#411);
#274=LINE('',#1639,#412);
#275=LINE('',#1642,#413);
#276=LINE('',#1643,#414);
#277=LINE('',#1646,#415);
#278=LINE('',#1647,#416);
#279=LINE('',#1649,#417);
#280=LINE('',#1651,#418);
#281=VECTOR('',#1115,10.);
#282=VECTOR('',#1116,10.);
#283=VECTOR('',#1117,10.);
#284=VECTOR('',#1118,10.);
#285=VECTOR('',#1121,10.);
#286=VECTOR('',#1122,10.);
#287=VECTOR('',#1123,10.);
#288=VECTOR('',#1124,10.);
#289=VECTOR('',#1127,10.);
#290=VECTOR('',#1128,10.);
#291=VECTOR('',#1129,10.);
#292=VECTOR('',#1132,10.);
#293=VECTOR('',#1133,10.);
#294=VECTOR('',#1134,10.);
#295=VECTOR('',#1137,10.);
#296=VECTOR('',#1138,10.);
#297=VECTOR('',#1139,10.);
#298=VECTOR('',#1142,10.);
#299=VECTOR('',#1143,10.);
#300=VECTOR('',#1144,10.);
#301=VECTOR('',#1145,10.);
#302=VECTOR('',#1148,10.);
#303=VECTOR('',#1149,10.);
#304=VECTOR('',#1150,10.);
#305=VECTOR('',#1153,10.);
#306=VECTOR('',#1154,10.);
#307=VECTOR('',#1155,10.);
#308=VECTOR('',#1158,10.);
#309=VECTOR('',#1159,10.);
#310=VECTOR('',#1160,10.);
#311=VECTOR('',#1163,10.);
#312=VECTOR('',#1164,10.);
#313=VECTOR('',#1165,10.);
#314=VECTOR('',#1168,10.);
#315=VECTOR('',#1169,10.);
#316=VECTOR('',#1172,10.);
#317=VECTOR('',#1173,10.);
#318=VECTOR('',#1174,10.);
#319=VECTOR('',#1177,10.);
#320=VECTOR('',#1178,10.);
#321=VECTOR('',#1181,10.);
#322=VECTOR('',#1182,10.);
#323=VECTOR('',#1187,10.);
#324=VECTOR('',#1188,10.);
#325=VECTOR('',#1189,10.);
#326=VECTOR('',#1190,10.);
#327=VECTOR('',#1193,10.);
#328=VECTOR('',#1194,10.);
#329=VECTOR('',#1195,10.);
#330=VECTOR('',#1198,10.);
#331=VECTOR('',#1199,10.);
#332=VECTOR('',#1200,10.);
#333=VECTOR('',#1203,10.);
#334=VECTOR('',#1204,10.);
#335=VECTOR('',#1205,10.);
#336=VECTOR('',#1208,10.);
#337=VECTOR('',#1209,10.);
#338=VECTOR('',#1210,10.);
#339=VECTOR('',#1213,10.);
#340=VECTOR('',#1214,10.);
#341=VECTOR('',#1217,10.);
#342=VECTOR('',#1218,10.);
#343=VECTOR('',#1219,10.);
#344=VECTOR('',#1222,10.);
#345=VECTOR('',#1223,10.);
#346=VECTOR('',#1226,10.);
#347=VECTOR('',#1227,10.);
#348=VECTOR('',#1232,10.);
#349=VECTOR('',#1233,10.);
#350=VECTOR('',#1234,10.);
#351=VECTOR('',#1235,10.);
#352=VECTOR('',#1238,10.);
#353=VECTOR('',#1239,10.);
#354=VECTOR('',#1240,10.);
#355=VECTOR('',#1243,10.);
#356=VECTOR('',#1244,10.);
#357=VECTOR('',#1245,10.);
#358=VECTOR('',#1248,10.);
#359=VECTOR('',#1249,10.);
#360=VECTOR('',#1250,10.);
#361=VECTOR('',#1253,10.);
#362=VECTOR('',#1254,10.);
#363=VECTOR('',#1255,10.);
#364=VECTOR('',#1258,10.);
#365=VECTOR('',#1259,10.);
#366=VECTOR('',#1262,10.);
#367=VECTOR('',#1263,10.);
#368=VECTOR('',#1264,10.);
#369=VECTOR('',#1267,10.);
#370=VECTOR('',#1268,10.);
#371=VECTOR('',#1271,10.);
#372=VECTOR('',#1272,10.);
#373=VECTOR('',#1277,10.);
#374=VECTOR('',#1278,10.);
#375=VECTOR('',#1279,10.);
#376=VECTOR('',#1280,10.);
#377=VECTOR('',#1283,10.);
#378=VECTOR('',#1284,10.);
#379=VECTOR('',#1285,10.);
#380=VECTOR('',#1288,10.);
#381=VECTOR('',#1289,10.);
#382=VECTOR('',#1290,10.);
#383=VECTOR('',#1293,10.);
#384=VECTOR('',#1294,10.);
#385=VECTOR('',#1295,10.);
#386=VECTOR('',#1298,10.);
#387=VECTOR('',#1299,10.);
#388=VECTOR('',#1300,10.);
#389=VECTOR('',#1303,10.);
#390=VECTOR('',#1304,10.);
#391=VECTOR('',#1307,10.);
#392=VECTOR('',#1308,10.);
#393=VECTOR('',#1309,10.);
#394=VECTOR('',#1312,10.);
#395=VECTOR('',#1313,10.);
#396=VECTOR('',#1316,10.);
#397=VECTOR('',#1317,10.);
#398=VECTOR('',#1322,10.);
#399=VECTOR('',#1323,10.);
#400=VECTOR('',#1326,10.);
#401=VECTOR('',#1327,10.);
#402=VECTOR('',#1330,10.);
#403=VECTOR('',#1333,10.);
#404=VECTOR('',#1334,10.);
#405=VECTOR('',#1337,10.);
#406=VECTOR('',#1338,10.);
#407=VECTOR('',#1341,10.);
#408=VECTOR('',#1344,10.);
#409=VECTOR('',#1345,10.);
#410=VECTOR('',#1348,10.);
#411=VECTOR('',#1349,10.);
#412=VECTOR('',#1352,10.);
#413=VECTOR('',#1355,10.);
#414=VECTOR('',#1356,10.);
#415=VECTOR('',#1359,10.);
#416=VECTOR('',#1360,10.);
#417=VECTOR('',#1363,10.);
#418=VECTOR('',#1366,10.);
#419=VERTEX_POINT('',#1373);
#420=VERTEX_POINT('',#1374);
#421=VERTEX_POINT('',#1376);
#422=VERTEX_POINT('',#1378);
#423=VERTEX_POINT('',#1382);
#424=VERTEX_POINT('',#1383);
#425=VERTEX_POINT('',#1385);
#426=VERTEX_POINT('',#1387);
#427=VERTEX_POINT('',#1391);
#428=VERTEX_POINT('',#1393);
#429=VERTEX_POINT('',#1398);
#430=VERTEX_POINT('',#1402);
#431=VERTEX_POINT('',#1407);
#432=VERTEX_POINT('',#1408);
#433=VERTEX_POINT('',#1410);
#434=VERTEX_POINT('',#1412);
#435=VERTEX_POINT('',#1416);
#436=VERTEX_POINT('',#1418);
#437=VERTEX_POINT('',#1422);
#438=VERTEX_POINT('',#1424);
#439=VERTEX_POINT('',#1428);
#440=VERTEX_POINT('',#1430);
#441=VERTEX_POINT('',#1434);
#442=VERTEX_POINT('',#1436);
#443=VERTEX_POINT('',#1443);
#444=VERTEX_POINT('',#1445);
#445=VERTEX_POINT('',#1449);
#446=VERTEX_POINT('',#1453);
#447=VERTEX_POINT('',#1458);
#448=VERTEX_POINT('',#1459);
#449=VERTEX_POINT('',#1461);
#450=VERTEX_POINT('',#1463);
#451=VERTEX_POINT('',#1467);
#452=VERTEX_POINT('',#1469);
#453=VERTEX_POINT('',#1473);
#454=VERTEX_POINT('',#1475);
#455=VERTEX_POINT('',#1479);
#456=VERTEX_POINT('',#1481);
#457=VERTEX_POINT('',#1485);
#458=VERTEX_POINT('',#1487);
#459=VERTEX_POINT('',#1494);
#460=VERTEX_POINT('',#1496);
#461=VERTEX_POINT('',#1500);
#462=VERTEX_POINT('',#1504);
#463=VERTEX_POINT('',#1509);
#464=VERTEX_POINT('',#1510);
#465=VERTEX_POINT('',#1512);
#466=VERTEX_POINT('',#1514);
#467=VERTEX_POINT('',#1518);
#468=VERTEX_POINT('',#1520);
#469=VERTEX_POINT('',#1524);
#470=VERTEX_POINT('',#1526);
#471=VERTEX_POINT('',#1530);
#472=VERTEX_POINT('',#1532);
#473=VERTEX_POINT('',#1536);
#474=VERTEX_POINT('',#1538);
#475=VERTEX_POINT('',#1545);
#476=VERTEX_POINT('',#1547);
#477=VERTEX_POINT('',#1551);
#478=VERTEX_POINT('',#1555);
#479=VERTEX_POINT('',#1560);
#480=VERTEX_POINT('',#1561);
#481=VERTEX_POINT('',#1563);
#482=VERTEX_POINT('',#1565);
#483=VERTEX_POINT('',#1569);
#484=VERTEX_POINT('',#1571);
#485=VERTEX_POINT('',#1575);
#486=VERTEX_POINT('',#1577);
#487=VERTEX_POINT('',#1581);
#488=VERTEX_POINT('',#1583);
#489=VERTEX_POINT('',#1587);
#490=VERTEX_POINT('',#1589);
#491=VERTEX_POINT('',#1596);
#492=VERTEX_POINT('',#1598);
#493=VERTEX_POINT('',#1602);
#494=VERTEX_POINT('',#1606);
#495=VERTEX_POINT('',#1611);
#496=VERTEX_POINT('',#1615);
#497=VERTEX_POINT('',#1621);
#498=VERTEX_POINT('',#1625);
#499=VERTEX_POINT('',#1631);
#500=VERTEX_POINT('',#1635);
#501=VERTEX_POINT('',#1641);
#502=VERTEX_POINT('',#1645);
#503=EDGE_CURVE('',#419,#420,#143,.T.);
#504=EDGE_CURVE('',#421,#419,#144,.T.);
#505=EDGE_CURVE('',#422,#421,#145,.T.);
#506=EDGE_CURVE('',#420,#422,#146,.T.);
#507=EDGE_CURVE('',#423,#424,#147,.T.);
#508=EDGE_CURVE('',#425,#423,#148,.T.);
#509=EDGE_CURVE('',#426,#425,#149,.T.);
#510=EDGE_CURVE('',#424,#426,#150,.T.);
#511=EDGE_CURVE('',#427,#423,#151,.T.);
#512=EDGE_CURVE('',#428,#427,#152,.F.);
#513=EDGE_CURVE('',#428,#425,#153,.T.);
#514=EDGE_CURVE('',#421,#426,#154,.F.);
#515=EDGE_CURVE('',#429,#428,#155,.F.);
#516=EDGE_CURVE('',#422,#429,#156,.F.);
#517=EDGE_CURVE('',#420,#430,#157,.F.);
#518=EDGE_CURVE('',#430,#427,#158,.F.);
#519=EDGE_CURVE('',#424,#419,#159,.T.);
#520=EDGE_CURVE('',#431,#432,#160,.T.);
#521=EDGE_CURVE('',#432,#433,#161,.T.);
#522=EDGE_CURVE('',#433,#434,#162,.T.);
#523=EDGE_CURVE('',#431,#434,#163,.T.);
#524=EDGE_CURVE('',#432,#435,#164,.T.);
#525=EDGE_CURVE('',#435,#436,#165,.T.);
#526=EDGE_CURVE('',#436,#433,#166,.T.);
#527=EDGE_CURVE('',#435,#437,#167,.T.);
#528=EDGE_CURVE('',#437,#438,#168,.T.);
#529=EDGE_CURVE('',#438,#436,#169,.T.);
#530=EDGE_CURVE('',#437,#439,#170,.T.);
#531=EDGE_CURVE('',#439,#440,#171,.T.);
#532=EDGE_CURVE('',#440,#438,#172,.T.);
#533=EDGE_CURVE('',#441,#440,#173,.T.);
#534=EDGE_CURVE('',#439,#442,#174,.T.);
#535=EDGE_CURVE('',#442,#441,#175,.T.);
#536=EDGE_CURVE('',#434,#441,#176,.T.);
#537=EDGE_CURVE('',#442,#431,#177,.T.);
#538=EDGE_CURVE('',#443,#441,#178,.T.);
#539=EDGE_CURVE('',#444,#443,#179,.T.);
#540=EDGE_CURVE('',#444,#440,#180,.T.);
#541=EDGE_CURVE('',#445,#434,#181,.T.);
#542=EDGE_CURVE('',#443,#445,#182,.T.);
#543=EDGE_CURVE('',#446,#433,#183,.T.);
#544=EDGE_CURVE('',#445,#446,#184,.T.);
#545=EDGE_CURVE('',#447,#448,#185,.T.);
#546=EDGE_CURVE('',#448,#449,#186,.T.);
#547=EDGE_CURVE('',#449,#450,#187,.T.);
#548=EDGE_CURVE('',#447,#450,#188,.T.);
#549=EDGE_CURVE('',#448,#451,#189,.T.);
#550=EDGE_CURVE('',#451,#452,#190,.T.);
#551=EDGE_CURVE('',#452,#449,#191,.T.);
#552=EDGE_CURVE('',#451,#453,#192,.T.);
#553=EDGE_CURVE('',#453,#454,#193,.T.);
#554=EDGE_CURVE('',#454,#452,#194,.T.);
#555=EDGE_CURVE('',#453,#455,#195,.T.);
#556=EDGE_CURVE('',#455,#456,#196,.T.);
#557=EDGE_CURVE('',#456,#454,#197,.T.);
#558=EDGE_CURVE('',#457,#456,#198,.T.);
#559=EDGE_CURVE('',#455,#458,#199,.T.);
#560=EDGE_CURVE('',#458,#457,#200,.T.);
#561=EDGE_CURVE('',#450,#457,#201,.T.);
#562=EDGE_CURVE('',#458,#447,#202,.T.);
#563=EDGE_CURVE('',#459,#457,#203,.T.);
#564=EDGE_CURVE('',#460,#459,#204,.T.);
#565=EDGE_CURVE('',#460,#456,#205,.T.);
#566=EDGE_CURVE('',#461,#450,#206,.T.);
#567=EDGE_CURVE('',#459,#461,#207,.T.);
#568=EDGE_CURVE('',#462,#449,#208,.T.);
#569=EDGE_CURVE('',#461,#462,#209,.T.);
#570=EDGE_CURVE('',#463,#464,#210,.T.);
#571=EDGE_CURVE('',#464,#465,#211,.T.);
#572=EDGE_CURVE('',#465,#466,#212,.T.);
#573=EDGE_CURVE('',#463,#466,#213,.T.);
#574=EDGE_CURVE('',#464,#467,#214,.T.);
#575=EDGE_CURVE('',#467,#468,#215,.T.);
#576=EDGE_CURVE('',#468,#465,#216,.T.);
#577=EDGE_CURVE('',#467,#469,#217,.T.);
#578=EDGE_CURVE('',#469,#470,#218,.T.);
#579=EDGE_CURVE('',#470,#468,#219,.T.);
#580=EDGE_CURVE('',#469,#471,#220,.T.);
#581=EDGE_CURVE('',#471,#472,#221,.T.);
#582=EDGE_CURVE('',#472,#470,#222,.T.);
#583=EDGE_CURVE('',#473,#472,#223,.T.);
#584=EDGE_CURVE('',#471,#474,#224,.T.);
#585=EDGE_CURVE('',#474,#473,#225,.T.);
#586=EDGE_CURVE('',#466,#473,#226,.T.);
#587=EDGE_CURVE('',#474,#463,#227,.T.);
#588=EDGE_CURVE('',#475,#473,#228,.T.);
#589=EDGE_CURVE('',#476,#475,#229,.T.);
#590=EDGE_CURVE('',#476,#472,#230,.T.);
#591=EDGE_CURVE('',#477,#466,#231,.T.);
#592=EDGE_CURVE('',#475,#477,#232,.T.);
#593=EDGE_CURVE('',#478,#465,#233,.T.);
#594=EDGE_CURVE('',#477,#478,#234,.T.);
#595=EDGE_CURVE('',#479,#480,#235,.T.);
#596=EDGE_CURVE('',#480,#481,#236,.T.);
#597=EDGE_CURVE('',#481,#482,#237,.T.);
#598=EDGE_CURVE('',#479,#482,#238,.T.);
#599=EDGE_CURVE('',#480,#483,#239,.T.);
#600=EDGE_CURVE('',#483,#484,#240,.T.);
#601=EDGE_CURVE('',#484,#481,#241,.T.);
#602=EDGE_CURVE('',#483,#485,#242,.T.);
#603=EDGE_CURVE('',#485,#486,#243,.T.);
#604=EDGE_CURVE('',#486,#484,#244,.T.);
#605=EDGE_CURVE('',#485,#487,#245,.T.);
#606=EDGE_CURVE('',#487,#488,#246,.T.);
#607=EDGE_CURVE('',#488,#486,#247,.T.);
#608=EDGE_CURVE('',#489,#488,#248,.T.);
#609=EDGE_CURVE('',#487,#490,#249,.T.);
#610=EDGE_CURVE('',#490,#489,#250,.T.);
#611=EDGE_CURVE('',#482,#489,#251,.T.);
#612=EDGE_CURVE('',#490,#479,#252,.T.);
#613=EDGE_CURVE('',#491,#489,#253,.T.);
#614=EDGE_CURVE('',#492,#491,#254,.T.);
#615=EDGE_CURVE('',#492,#488,#255,.T.);
#616=EDGE_CURVE('',#493,#482,#256,.T.);
#617=EDGE_CURVE('',#491,#493,#257,.T.);
#618=EDGE_CURVE('',#494,#481,#258,.T.);
#619=EDGE_CURVE('',#493,#494,#259,.T.);
#620=EDGE_CURVE('',#495,#436,#260,.T.);
#621=EDGE_CURVE('',#446,#495,#261,.T.);
#622=EDGE_CURVE('',#496,#438,#262,.T.);
#623=EDGE_CURVE('',#495,#496,#263,.T.);
#624=EDGE_CURVE('',#496,#444,#264,.T.);
#625=EDGE_CURVE('',#497,#484,#265,.T.);
#626=EDGE_CURVE('',#494,#497,#266,.T.);
#627=EDGE_CURVE('',#498,#486,#267,.T.);
#628=EDGE_CURVE('',#497,#498,#268,.T.);
#629=EDGE_CURVE('',#498,#492,#269,.T.);
#630=EDGE_CURVE('',#499,#452,#270,.T.);
#631=EDGE_CURVE('',#462,#499,#271,.T.);
#632=EDGE_CURVE('',#500,#454,#272,.T.);
#633=EDGE_CURVE('',#499,#500,#273,.T.);
#634=EDGE_CURVE('',#500,#460,#274,.T.);
#635=EDGE_CURVE('',#501,#468,#275,.T.);
#636=EDGE_CURVE('',#478,#501,#276,.T.);
#637=EDGE_CURVE('',#502,#470,#277,.T.);
#638=EDGE_CURVE('',#501,#502,#278,.T.);
#639=EDGE_CURVE('',#502,#476,#279,.T.);
#640=EDGE_CURVE('',#429,#430,#280,.T.);
#641=ORIENTED_EDGE('',*,*,#503,.F.);
#642=ORIENTED_EDGE('',*,*,#504,.F.);
#643=ORIENTED_EDGE('',*,*,#505,.F.);
#644=ORIENTED_EDGE('',*,*,#506,.F.);
#645=ORIENTED_EDGE('',*,*,#507,.F.);
#646=ORIENTED_EDGE('',*,*,#508,.F.);
#647=ORIENTED_EDGE('',*,*,#509,.F.);
#648=ORIENTED_EDGE('',*,*,#510,.F.);
#649=ORIENTED_EDGE('',*,*,#508,.T.);
#650=ORIENTED_EDGE('',*,*,#511,.F.);
#651=ORIENTED_EDGE('',*,*,#512,.F.);
#652=ORIENTED_EDGE('',*,*,#513,.T.);
#653=ORIENTED_EDGE('',*,*,#505,.T.);
#654=ORIENTED_EDGE('',*,*,#514,.T.);
#655=ORIENTED_EDGE('',*,*,#509,.T.);
#656=ORIENTED_EDGE('',*,*,#513,.F.);
#657=ORIENTED_EDGE('',*,*,#515,.F.);
#658=ORIENTED_EDGE('',*,*,#516,.F.);
#659=ORIENTED_EDGE('',*,*,#503,.T.);
#660=ORIENTED_EDGE('',*,*,#517,.T.);
#661=ORIENTED_EDGE('',*,*,#518,.T.);
#662=ORIENTED_EDGE('',*,*,#511,.T.);
#663=ORIENTED_EDGE('',*,*,#507,.T.);
#664=ORIENTED_EDGE('',*,*,#519,.T.);
#665=ORIENTED_EDGE('',*,*,#520,.T.);
#666=ORIENTED_EDGE('',*,*,#521,.T.);
#667=ORIENTED_EDGE('',*,*,#522,.T.);
#668=ORIENTED_EDGE('',*,*,#523,.F.);
#669=ORIENTED_EDGE('',*,*,#524,.T.);
#670=ORIENTED_EDGE('',*,*,#525,.T.);
#671=ORIENTED_EDGE('',*,*,#526,.T.);
#672=ORIENTED_EDGE('',*,*,#521,.F.);
#673=ORIENTED_EDGE('',*,*,#527,.T.);
#674=ORIENTED_EDGE('',*,*,#528,.T.);
#675=ORIENTED_EDGE('',*,*,#529,.T.);
#676=ORIENTED_EDGE('',*,*,#525,.F.);
#677=ORIENTED_EDGE('',*,*,#530,.T.);
#678=ORIENTED_EDGE('',*,*,#531,.T.);
#679=ORIENTED_EDGE('',*,*,#532,.T.);
#680=ORIENTED_EDGE('',*,*,#528,.F.);
#681=ORIENTED_EDGE('',*,*,#533,.T.);
#682=ORIENTED_EDGE('',*,*,#531,.F.);
#683=ORIENTED_EDGE('',*,*,#534,.T.);
#684=ORIENTED_EDGE('',*,*,#535,.T.);
#685=ORIENTED_EDGE('',*,*,#536,.T.);
#686=ORIENTED_EDGE('',*,*,#535,.F.);
#687=ORIENTED_EDGE('',*,*,#537,.T.);
#688=ORIENTED_EDGE('',*,*,#523,.T.);
#689=ORIENTED_EDGE('',*,*,#533,.F.);
#690=ORIENTED_EDGE('',*,*,#538,.F.);
#691=ORIENTED_EDGE('',*,*,#539,.F.);
#692=ORIENTED_EDGE('',*,*,#540,.T.);
#693=ORIENTED_EDGE('',*,*,#536,.F.);
#694=ORIENTED_EDGE('',*,*,#541,.F.);
#695=ORIENTED_EDGE('',*,*,#542,.F.);
#696=ORIENTED_EDGE('',*,*,#538,.T.);
#697=ORIENTED_EDGE('',*,*,#522,.F.);
#698=ORIENTED_EDGE('',*,*,#543,.F.);
#699=ORIENTED_EDGE('',*,*,#544,.F.);
#700=ORIENTED_EDGE('',*,*,#541,.T.);
#701=ORIENTED_EDGE('',*,*,#520,.F.);
#702=ORIENTED_EDGE('',*,*,#537,.F.);
#703=ORIENTED_EDGE('',*,*,#534,.F.);
#704=ORIENTED_EDGE('',*,*,#530,.F.);
#705=ORIENTED_EDGE('',*,*,#527,.F.);
#706=ORIENTED_EDGE('',*,*,#524,.F.);
#707=ORIENTED_EDGE('',*,*,#545,.T.);
#708=ORIENTED_EDGE('',*,*,#546,.T.);
#709=ORIENTED_EDGE('',*,*,#547,.T.);
#710=ORIENTED_EDGE('',*,*,#548,.F.);
#711=ORIENTED_EDGE('',*,*,#549,.T.);
#712=ORIENTED_EDGE('',*,*,#550,.T.);
#713=ORIENTED_EDGE('',*,*,#551,.T.);
#714=ORIENTED_EDGE('',*,*,#546,.F.);
#715=ORIENTED_EDGE('',*,*,#552,.T.);
#716=ORIENTED_EDGE('',*,*,#553,.T.);
#717=ORIENTED_EDGE('',*,*,#554,.T.);
#718=ORIENTED_EDGE('',*,*,#550,.F.);
#719=ORIENTED_EDGE('',*,*,#555,.T.);
#720=ORIENTED_EDGE('',*,*,#556,.T.);
#721=ORIENTED_EDGE('',*,*,#557,.T.);
#722=ORIENTED_EDGE('',*,*,#553,.F.);
#723=ORIENTED_EDGE('',*,*,#558,.T.);
#724=ORIENTED_EDGE('',*,*,#556,.F.);
#725=ORIENTED_EDGE('',*,*,#559,.T.);
#726=ORIENTED_EDGE('',*,*,#560,.T.);
#727=ORIENTED_EDGE('',*,*,#561,.T.);
#728=ORIENTED_EDGE('',*,*,#560,.F.);
#729=ORIENTED_EDGE('',*,*,#562,.T.);
#730=ORIENTED_EDGE('',*,*,#548,.T.);
#731=ORIENTED_EDGE('',*,*,#558,.F.);
#732=ORIENTED_EDGE('',*,*,#563,.F.);
#733=ORIENTED_EDGE('',*,*,#564,.F.);
#734=ORIENTED_EDGE('',*,*,#565,.T.);
#735=ORIENTED_EDGE('',*,*,#561,.F.);
#736=ORIENTED_EDGE('',*,*,#566,.F.);
#737=ORIENTED_EDGE('',*,*,#567,.F.);
#738=ORIENTED_EDGE('',*,*,#563,.T.);
#739=ORIENTED_EDGE('',*,*,#547,.F.);
#740=ORIENTED_EDGE('',*,*,#568,.F.);
#741=ORIENTED_EDGE('',*,*,#569,.F.);
#742=ORIENTED_EDGE('',*,*,#566,.T.);
#743=ORIENTED_EDGE('',*,*,#545,.F.);
#744=ORIENTED_EDGE('',*,*,#562,.F.);
#745=ORIENTED_EDGE('',*,*,#559,.F.);
#746=ORIENTED_EDGE('',*,*,#555,.F.);
#747=ORIENTED_EDGE('',*,*,#552,.F.);
#748=ORIENTED_EDGE('',*,*,#549,.F.);
#749=ORIENTED_EDGE('',*,*,#570,.T.);
#750=ORIENTED_EDGE('',*,*,#571,.T.);
#751=ORIENTED_EDGE('',*,*,#572,.T.);
#752=ORIENTED_EDGE('',*,*,#573,.F.);
#753=ORIENTED_EDGE('',*,*,#574,.T.);
#754=ORIENTED_EDGE('',*,*,#575,.T.);
#755=ORIENTED_EDGE('',*,*,#576,.T.);
#756=ORIENTED_EDGE('',*,*,#571,.F.);
#757=ORIENTED_EDGE('',*,*,#577,.T.);
#758=ORIENTED_EDGE('',*,*,#578,.T.);
#759=ORIENTED_EDGE('',*,*,#579,.T.);
#760=ORIENTED_EDGE('',*,*,#575,.F.);
#761=ORIENTED_EDGE('',*,*,#580,.T.);
#762=ORIENTED_EDGE('',*,*,#581,.T.);
#763=ORIENTED_EDGE('',*,*,#582,.T.);
#764=ORIENTED_EDGE('',*,*,#578,.F.);
#765=ORIENTED_EDGE('',*,*,#583,.T.);
#766=ORIENTED_EDGE('',*,*,#581,.F.);
#767=ORIENTED_EDGE('',*,*,#584,.T.);
#768=ORIENTED_EDGE('',*,*,#585,.T.);
#769=ORIENTED_EDGE('',*,*,#586,.T.);
#770=ORIENTED_EDGE('',*,*,#585,.F.);
#771=ORIENTED_EDGE('',*,*,#587,.T.);
#772=ORIENTED_EDGE('',*,*,#573,.T.);
#773=ORIENTED_EDGE('',*,*,#583,.F.);
#774=ORIENTED_EDGE('',*,*,#588,.F.);
#775=ORIENTED_EDGE('',*,*,#589,.F.);
#776=ORIENTED_EDGE('',*,*,#590,.T.);
#777=ORIENTED_EDGE('',*,*,#586,.F.);
#778=ORIENTED_EDGE('',*,*,#591,.F.);
#779=ORIENTED_EDGE('',*,*,#592,.F.);
#780=ORIENTED_EDGE('',*,*,#588,.T.);
#781=ORIENTED_EDGE('',*,*,#572,.F.);
#782=ORIENTED_EDGE('',*,*,#593,.F.);
#783=ORIENTED_EDGE('',*,*,#594,.F.);
#784=ORIENTED_EDGE('',*,*,#591,.T.);
#785=ORIENTED_EDGE('',*,*,#570,.F.);
#786=ORIENTED_EDGE('',*,*,#587,.F.);
#787=ORIENTED_EDGE('',*,*,#584,.F.);
#788=ORIENTED_EDGE('',*,*,#580,.F.);
#789=ORIENTED_EDGE('',*,*,#577,.F.);
#790=ORIENTED_EDGE('',*,*,#574,.F.);
#791=ORIENTED_EDGE('',*,*,#595,.T.);
#792=ORIENTED_EDGE('',*,*,#596,.T.);
#793=ORIENTED_EDGE('',*,*,#597,.T.);
#794=ORIENTED_EDGE('',*,*,#598,.F.);
#795=ORIENTED_EDGE('',*,*,#599,.T.);
#796=ORIENTED_EDGE('',*,*,#600,.T.);
#797=ORIENTED_EDGE('',*,*,#601,.T.);
#798=ORIENTED_EDGE('',*,*,#596,.F.);
#799=ORIENTED_EDGE('',*,*,#602,.T.);
#800=ORIENTED_EDGE('',*,*,#603,.T.);
#801=ORIENTED_EDGE('',*,*,#604,.T.);
#802=ORIENTED_EDGE('',*,*,#600,.F.);
#803=ORIENTED_EDGE('',*,*,#605,.T.);
#804=ORIENTED_EDGE('',*,*,#606,.T.);
#805=ORIENTED_EDGE('',*,*,#607,.T.);
#806=ORIENTED_EDGE('',*,*,#603,.F.);
#807=ORIENTED_EDGE('',*,*,#608,.T.);
#808=ORIENTED_EDGE('',*,*,#606,.F.);
#809=ORIENTED_EDGE('',*,*,#609,.T.);
#810=ORIENTED_EDGE('',*,*,#610,.T.);
#811=ORIENTED_EDGE('',*,*,#611,.T.);
#812=ORIENTED_EDGE('',*,*,#610,.F.);
#813=ORIENTED_EDGE('',*,*,#612,.T.);
#814=ORIENTED_EDGE('',*,*,#598,.T.);
#815=ORIENTED_EDGE('',*,*,#608,.F.);
#816=ORIENTED_EDGE('',*,*,#613,.F.);
#817=ORIENTED_EDGE('',*,*,#614,.F.);
#818=ORIENTED_EDGE('',*,*,#615,.T.);
#819=ORIENTED_EDGE('',*,*,#611,.F.);
#820=ORIENTED_EDGE('',*,*,#616,.F.);
#821=ORIENTED_EDGE('',*,*,#617,.F.);
#822=ORIENTED_EDGE('',*,*,#613,.T.);
#823=ORIENTED_EDGE('',*,*,#597,.F.);
#824=ORIENTED_EDGE('',*,*,#618,.F.);
#825=ORIENTED_EDGE('',*,*,#619,.F.);
#826=ORIENTED_EDGE('',*,*,#616,.T.);
#827=ORIENTED_EDGE('',*,*,#595,.F.);
#828=ORIENTED_EDGE('',*,*,#612,.F.);
#829=ORIENTED_EDGE('',*,*,#609,.F.);
#830=ORIENTED_EDGE('',*,*,#605,.F.);
#831=ORIENTED_EDGE('',*,*,#602,.F.);
#832=ORIENTED_EDGE('',*,*,#599,.F.);
#833=ORIENTED_EDGE('',*,*,#526,.F.);
#834=ORIENTED_EDGE('',*,*,#620,.F.);
#835=ORIENTED_EDGE('',*,*,#621,.F.);
#836=ORIENTED_EDGE('',*,*,#543,.T.);
#837=ORIENTED_EDGE('',*,*,#529,.F.);
#838=ORIENTED_EDGE('',*,*,#622,.F.);
#839=ORIENTED_EDGE('',*,*,#623,.F.);
#840=ORIENTED_EDGE('',*,*,#620,.T.);
#841=ORIENTED_EDGE('',*,*,#532,.F.);
#842=ORIENTED_EDGE('',*,*,#540,.F.);
#843=ORIENTED_EDGE('',*,*,#624,.F.);
#844=ORIENTED_EDGE('',*,*,#622,.T.);
#845=ORIENTED_EDGE('',*,*,#601,.F.);
#846=ORIENTED_EDGE('',*,*,#625,.F.);
#847=ORIENTED_EDGE('',*,*,#626,.F.);
#848=ORIENTED_EDGE('',*,*,#618,.T.);
#849=ORIENTED_EDGE('',*,*,#604,.F.);
#850=ORIENTED_EDGE('',*,*,#627,.F.);
#851=ORIENTED_EDGE('',*,*,#628,.F.);
#852=ORIENTED_EDGE('',*,*,#625,.T.);
#853=ORIENTED_EDGE('',*,*,#607,.F.);
#854=ORIENTED_EDGE('',*,*,#615,.F.);
#855=ORIENTED_EDGE('',*,*,#629,.F.);
#856=ORIENTED_EDGE('',*,*,#627,.T.);
#857=ORIENTED_EDGE('',*,*,#551,.F.);
#858=ORIENTED_EDGE('',*,*,#630,.F.);
#859=ORIENTED_EDGE('',*,*,#631,.F.);
#860=ORIENTED_EDGE('',*,*,#568,.T.);
#861=ORIENTED_EDGE('',*,*,#554,.F.);
#862=ORIENTED_EDGE('',*,*,#632,.F.);
#863=ORIENTED_EDGE('',*,*,#633,.F.);
#864=ORIENTED_EDGE('',*,*,#630,.T.);
#865=ORIENTED_EDGE('',*,*,#557,.F.);
#866=ORIENTED_EDGE('',*,*,#565,.F.);
#867=ORIENTED_EDGE('',*,*,#634,.F.);
#868=ORIENTED_EDGE('',*,*,#632,.T.);
#869=ORIENTED_EDGE('',*,*,#576,.F.);
#870=ORIENTED_EDGE('',*,*,#635,.F.);
#871=ORIENTED_EDGE('',*,*,#636,.F.);
#872=ORIENTED_EDGE('',*,*,#593,.T.);
#873=ORIENTED_EDGE('',*,*,#579,.F.);
#874=ORIENTED_EDGE('',*,*,#637,.F.);
#875=ORIENTED_EDGE('',*,*,#638,.F.);
#876=ORIENTED_EDGE('',*,*,#635,.T.);
#877=ORIENTED_EDGE('',*,*,#582,.F.);
#878=ORIENTED_EDGE('',*,*,#590,.F.);
#879=ORIENTED_EDGE('',*,*,#639,.F.);
#880=ORIENTED_EDGE('',*,*,#637,.T.);
#881=ORIENTED_EDGE('',*,*,#506,.T.);
#882=ORIENTED_EDGE('',*,*,#516,.T.);
#883=ORIENTED_EDGE('',*,*,#640,.T.);
#884=ORIENTED_EDGE('',*,*,#517,.F.);
#885=ORIENTED_EDGE('',*,*,#504,.T.);
#886=ORIENTED_EDGE('',*,*,#519,.F.);
#887=ORIENTED_EDGE('',*,*,#510,.T.);
#888=ORIENTED_EDGE('',*,*,#514,.F.);
#889=ORIENTED_EDGE('',*,*,#518,.F.);
#890=ORIENTED_EDGE('',*,*,#640,.F.);
#891=ORIENTED_EDGE('',*,*,#515,.T.);
#892=ORIENTED_EDGE('',*,*,#512,.T.);
#893=ORIENTED_EDGE('',*,*,#539,.T.);
#894=ORIENTED_EDGE('',*,*,#542,.T.);
#895=ORIENTED_EDGE('',*,*,#544,.T.);
#896=ORIENTED_EDGE('',*,*,#621,.T.);
#897=ORIENTED_EDGE('',*,*,#623,.T.);
#898=ORIENTED_EDGE('',*,*,#624,.T.);
#899=ORIENTED_EDGE('',*,*,#614,.T.);
#900=ORIENTED_EDGE('',*,*,#617,.T.);
#901=ORIENTED_EDGE('',*,*,#619,.T.);
#902=ORIENTED_EDGE('',*,*,#626,.T.);
#903=ORIENTED_EDGE('',*,*,#628,.T.);
#904=ORIENTED_EDGE('',*,*,#629,.T.);
#905=ORIENTED_EDGE('',*,*,#564,.T.);
#906=ORIENTED_EDGE('',*,*,#567,.T.);
#907=ORIENTED_EDGE('',*,*,#569,.T.);
#908=ORIENTED_EDGE('',*,*,#631,.T.);
#909=ORIENTED_EDGE('',*,*,#633,.T.);
#910=ORIENTED_EDGE('',*,*,#634,.T.);
#911=ORIENTED_EDGE('',*,*,#589,.T.);
#912=ORIENTED_EDGE('',*,*,#592,.T.);
#913=ORIENTED_EDGE('',*,*,#594,.T.);
#914=ORIENTED_EDGE('',*,*,#636,.T.);
#915=ORIENTED_EDGE('',*,*,#638,.T.);
#916=ORIENTED_EDGE('',*,*,#639,.T.);
#917=PLANE('',#1051);
#918=PLANE('',#1052);
#919=PLANE('',#1053);
#920=PLANE('',#1054);
#921=PLANE('',#1055);
#922=PLANE('',#1056);
#923=PLANE('',#1057);
#924=PLANE('',#1058);
#925=PLANE('',#1059);
#926=PLANE('',#1060);
#927=PLANE('',#1061);
#928=PLANE('',#1062);
#929=PLANE('',#1063);
#930=PLANE('',#1064);
#931=PLANE('',#1065);
#932=PLANE('',#1066);
#933=PLANE('',#1067);
#934=PLANE('',#1068);
#935=PLANE('',#1069);
#936=PLANE('',#1070);
#937=PLANE('',#1071);
#938=PLANE('',#1072);
#939=PLANE('',#1073);
#940=PLANE('',#1074);
#941=PLANE('',#1075);
#942=PLANE('',#1076);
#943=PLANE('',#1077);
#944=PLANE('',#1078);
#945=PLANE('',#1079);
#946=PLANE('',#1080);
#947=PLANE('',#1081);
#948=PLANE('',#1082);
#949=PLANE('',#1083);
#950=PLANE('',#1084);
#951=PLANE('',#1085);
#952=PLANE('',#1086);
#953=PLANE('',#1087);
#954=PLANE('',#1088);
#955=PLANE('',#1089);
#956=PLANE('',#1090);
#957=PLANE('',#1091);
#958=PLANE('',#1092);
#959=PLANE('',#1093);
#960=PLANE('',#1094);
#961=PLANE('',#1095);
#962=PLANE('',#1096);
#963=PLANE('',#1097);
#964=PLANE('',#1098);
#965=PLANE('',#1099);
#966=PLANE('',#1100);
#967=PLANE('',#1101);
#968=PLANE('',#1102);
#969=PLANE('',#1103);
#970=PLANE('',#1104);
#971=PLANE('',#1105);
#972=PLANE('',#1106);
#973=PLANE('',#1107);
#974=PLANE('',#1108);
#975=PLANE('',#1109);
#976=PLANE('',#1110);
#977=ADVANCED_FACE('',(#19),#917,.F.);
#978=ADVANCED_FACE('',(#20),#918,.F.);
#979=ADVANCED_FACE('',(#21),#919,.T.);
#980=ADVANCED_FACE('',(#22),#920,.T.);
#981=ADVANCED_FACE('',(#23),#921,.F.);
#982=ADVANCED_FACE('',(#24),#922,.T.);
#983=ADVANCED_FACE('',(#25),#923,.T.);
#984=ADVANCED_FACE('',(#26),#924,.T.);
#985=ADVANCED_FACE('',(#27),#925,.T.);
#986=ADVANCED_FACE('',(#28),#926,.T.);
#987=ADVANCED_FACE('',(#29),#927,.T.);
#988=ADVANCED_FACE('',(#30),#928,.T.);
#989=ADVANCED_FACE('',(#31),#929,.T.);
#990=ADVANCED_FACE('',(#32),#930,.T.);
#991=ADVANCED_FACE('',(#33),#931,.T.);
#992=ADVANCED_FACE('',(#34),#932,.T.);
#993=ADVANCED_FACE('',(#35),#933,.T.);
#994=ADVANCED_FACE('',(#36),#934,.T.);
#995=ADVANCED_FACE('',(#37),#935,.T.);
#996=ADVANCED_FACE('',(#38),#936,.T.);
#997=ADVANCED_FACE('',(#39),#937,.T.);
#998=ADVANCED_FACE('',(#40),#938,.T.);
#999=ADVANCED_FACE('',(#41),#939,.T.);
#1000=ADVANCED_FACE('',(#42),#940,.T.);
#1001=ADVANCED_FACE('',(#43),#941,.T.);
#1002=ADVANCED_FACE('',(#44),#942,.T.);
#1003=ADVANCED_FACE('',(#45),#943,.T.);
#1004=ADVANCED_FACE('',(#46),#944,.T.);
#1005=ADVANCED_FACE('',(#47),#945,.T.);
#1006=ADVANCED_FACE('',(#48),#946,.T.);
#1007=ADVANCED_FACE('',(#49),#947,.T.);
#1008=ADVANCED_FACE('',(#50),#948,.T.);
#1009=ADVANCED_FACE('',(#51),#949,.T.);
#1010=ADVANCED_FACE('',(#52),#950,.T.);
#1011=ADVANCED_FACE('',(#53),#951,.T.);
#1012=ADVANCED_FACE('',(#54),#952,.T.);
#1013=ADVANCED_FACE('',(#55),#953,.T.);
#1014=ADVANCED_FACE('',(#56),#954,.T.);
#1015=ADVANCED_FACE('',(#57),#955,.T.);
#1016=ADVANCED_FACE('',(#58),#956,.T.);
#1017=ADVANCED_FACE('',(#59),#957,.T.);
#1018=ADVANCED_FACE('',(#60),#958,.T.);
#1019=ADVANCED_FACE('',(#61),#959,.T.);
#1020=ADVANCED_FACE('',(#62),#960,.T.);
#1021=ADVANCED_FACE('',(#63),#961,.T.);
#1022=ADVANCED_FACE('',(#64),#962,.T.);
#1023=ADVANCED_FACE('',(#65),#963,.T.);
#1024=ADVANCED_FACE('',(#66),#964,.T.);
#1025=ADVANCED_FACE('',(#67),#965,.T.);
#1026=ADVANCED_FACE('',(#68),#966,.T.);
#1027=ADVANCED_FACE('',(#69),#967,.T.);
#1028=ADVANCED_FACE('',(#70),#968,.T.);
#1029=ADVANCED_FACE('',(#71),#969,.T.);
#1030=ADVANCED_FACE('',(#72),#970,.T.);
#1031=ADVANCED_FACE('',(#73),#971,.T.);
#1032=ADVANCED_FACE('',(#74),#972,.T.);
#1033=ADVANCED_FACE('',(#75),#973,.T.);
#1034=ADVANCED_FACE('',(#76),#974,.T.);
#1035=ADVANCED_FACE('',(#77),#975,.T.);
#1036=ADVANCED_FACE('',(#78,#15,#16,#17,#18),#976,.T.);
#1037=CLOSED_SHELL('',(#977,#978,#979,#980,#981,#982,#983,#984,#985,#986,
#987,#988,#989,#990,#991,#992,#993,#994,#995,#996,#997,#998,#999,#1000,
#1001,#1002,#1003,#1004,#1005,#1006,#1007,#1008,#1009,#1010,#1011,#1012,
#1013,#1014,#1015,#1016,#1017,#1018,#1019,#1020,#1021,#1022,#1023,#1024,
#1025,#1026,#1027,#1028,#1029,#1030,#1031,#1032,#1033,#1034,#1035,#1036));
#1038=DERIVED_UNIT_ELEMENT(#1040,1.);
#1039=DERIVED_UNIT_ELEMENT(#1659,-3.);
#1040=(
MASS_UNIT()
NAMED_UNIT(*)
SI_UNIT(.KILO.,.GRAM.)
);
#1041=DERIVED_UNIT((#1038,#1039));
#1042=MEASURE_REPRESENTATION_ITEM('density measure',
POSITIVE_RATIO_MEASURE(1060.),#1041);
#1043=PROPERTY_DEFINITION_REPRESENTATION(#1048,#1045);
#1044=PROPERTY_DEFINITION_REPRESENTATION(#1049,#1046);
#1045=REPRESENTATION('material name',(#1047),#1656);
#1046=REPRESENTATION('density',(#1042),#1656);
#1047=DESCRIPTIVE_REPRESENTATION_ITEM('ABS-Kunststoff','ABS-Kunststoff');
#1048=PROPERTY_DEFINITION('material property','material name',#1666);
#1049=PROPERTY_DEFINITION('material property','density of part',#1666);
#1050=AXIS2_PLACEMENT_3D('',#1371,#1111,#1112);
#1051=AXIS2_PLACEMENT_3D('',#1372,#1113,#1114);
#1052=AXIS2_PLACEMENT_3D('',#1381,#1119,#1120);
#1053=AXIS2_PLACEMENT_3D('',#1390,#1125,#1126);
#1054=AXIS2_PLACEMENT_3D('',#1396,#1130,#1131);
#1055=AXIS2_PLACEMENT_3D('',#1401,#1135,#1136);
#1056=AXIS2_PLACEMENT_3D('',#1406,#1140,#1141);
#1057=AXIS2_PLACEMENT_3D('',#1415,#1146,#1147);
#1058=AXIS2_PLACEMENT_3D('',#1421,#1151,#1152);
#1059=AXIS2_PLACEMENT_3D('',#1427,#1156,#1157);
#1060=AXIS2_PLACEMENT_3D('',#1433,#1161,#1162);
#1061=AXIS2_PLACEMENT_3D('',#1439,#1166,#1167);
#1062=AXIS2_PLACEMENT_3D('',#1442,#1170,#1171);
#1063=AXIS2_PLACEMENT_3D('',#1448,#1175,#1176);
#1064=AXIS2_PLACEMENT_3D('',#1452,#1179,#1180);
#1065=AXIS2_PLACEMENT_3D('',#1456,#1183,#1184);
#1066=AXIS2_PLACEMENT_3D('',#1457,#1185,#1186);
#1067=AXIS2_PLACEMENT_3D('',#1466,#1191,#1192);
#1068=AXIS2_PLACEMENT_3D('',#1472,#1196,#1197);
#1069=AXIS2_PLACEMENT_3D('',#1478,#1201,#1202);
#1070=AXIS2_PLACEMENT_3D('',#1484,#1206,#1207);
#1071=AXIS2_PLACEMENT_3D('',#1490,#1211,#1212);
#1072=AXIS2_PLACEMENT_3D('',#1493,#1215,#1216);
#1073=AXIS2_PLACEMENT_3D('',#1499,#1220,#1221);
#1074=AXIS2_PLACEMENT_3D('',#1503,#1224,#1225);
#1075=AXIS2_PLACEMENT_3D('',#1507,#1228,#1229);
#1076=AXIS2_PLACEMENT_3D('',#1508,#1230,#1231);
#1077=AXIS2_PLACEMENT_3D('',#1517,#1236,#1237);
#1078=AXIS2_PLACEMENT_3D('',#1523,#1241,#1242);
#1079=AXIS2_PLACEMENT_3D('',#1529,#1246,#1247);
#1080=AXIS2_PLACEMENT_3D('',#1535,#1251,#1252);
#1081=AXIS2_PLACEMENT_3D('',#1541,#1256,#1257);
#1082=AXIS2_PLACEMENT_3D('',#1544,#1260,#1261);
#1083=AXIS2_PLACEMENT_3D('',#1550,#1265,#1266);
#1084=AXIS2_PLACEMENT_3D('',#1554,#1269,#1270);
#1085=AXIS2_PLACEMENT_3D('',#1558,#1273,#1274);
#1086=AXIS2_PLACEMENT_3D('',#1559,#1275,#1276);
#1087=AXIS2_PLACEMENT_3D('',#1568,#1281,#1282);
#1088=AXIS2_PLACEMENT_3D('',#1574,#1286,#1287);
#1089=AXIS2_PLACEMENT_3D('',#1580,#1291,#1292);
#1090=AXIS2_PLACEMENT_3D('',#1586,#1296,#1297);
#1091=AXIS2_PLACEMENT_3D('',#1592,#1301,#1302);
#1092=AXIS2_PLACEMENT_3D('',#1595,#1305,#1306);
#1093=AXIS2_PLACEMENT_3D('',#1601,#1310,#1311);
#1094=AXIS2_PLACEMENT_3D('',#1605,#1314,#1315);
#1095=AXIS2_PLACEMENT_3D('',#1609,#1318,#1319);
#1096=AXIS2_PLACEMENT_3D('',#1610,#1320,#1321);
#1097=AXIS2_PLACEMENT_3D('',#1614,#1324,#1325);
#1098=AXIS2_PLACEMENT_3D('',#1618,#1328,#1329);
#1099=AXIS2_PLACEMENT_3D('',#1620,#1331,#1332);
#1100=AXIS2_PLACEMENT_3D('',#1624,#1335,#1336);
#1101=AXIS2_PLACEMENT_3D('',#1628,#1339,#1340);
#1102=AXIS2_PLACEMENT_3D('',#1630,#1342,#1343);
#1103=AXIS2_PLACEMENT_3D('',#1634,#1346,#1347);
#1104=AXIS2_PLACEMENT_3D('',#1638,#1350,#1351);
#1105=AXIS2_PLACEMENT_3D('',#1640,#1353,#1354);
#1106=AXIS2_PLACEMENT_3D('',#1644,#1357,#1358);
#1107=AXIS2_PLACEMENT_3D('',#1648,#1361,#1362);
#1108=AXIS2_PLACEMENT_3D('',#1650,#1364,#1365);
#1109=AXIS2_PLACEMENT_3D('',#1652,#1367,#1368);
#1110=AXIS2_PLACEMENT_3D('',#1653,#1369,#1370);
#1111=DIRECTION('axis',(0.,0.,1.));
#1112=DIRECTION('refdir',(1.,0.,0.));
#1113=DIRECTION('center_axis',(0.,0.,1.));
#1114=DIRECTION('ref_axis',(0.,1.,0.));
#1115=DIRECTION('',(0.,-1.,0.));
#1116=DIRECTION('',(-1.,0.,0.));
#1117=DIRECTION('',(0.,1.,0.));
#1118=DIRECTION('',(1.,0.,0.));
#1119=DIRECTION('center_axis',(0.,0.,-1.));
#1120=DIRECTION('ref_axis',(0.,-1.,0.));
#1121=DIRECTION('',(0.,1.,0.));
#1122=DIRECTION('',(-1.,0.,0.));
#1123=DIRECTION('',(0.,-1.,0.));
#1124=DIRECTION('',(1.,0.,0.));
#1125=DIRECTION('center_axis',(0.,-0.707106781186548,0.707106781186548));
#1126=DIRECTION('ref_axis',(0.,0.707106781186548,0.707106781186548));
#1127=DIRECTION('',(0.,0.707106781186548,0.707106781186548));
#1128=DIRECTION('',(1.,0.,0.));
#1129=DIRECTION('',(0.,0.707106781186548,0.707106781186548));
#1130=DIRECTION('center_axis',(1.,0.,0.));
#1131=DIRECTION('ref_axis',(0.,0.,1.));
#1132=DIRECTION('',(0.,0.,-1.));
#1133=DIRECTION('',(0.,0.,-1.));
#1134=DIRECTION('',(0.,0.707106781186548,-0.707106781186548));
#1135=DIRECTION('center_axis',(1.,0.,0.));
#1136=DIRECTION('ref_axis',(0.,0.,-1.));
#1137=DIRECTION('',(0.,0.707106781186548,-0.707106781186548));
#1138=DIRECTION('',(0.,0.,-1.));
#1139=DIRECTION('',(0.,0.,-1.));
#1140=DIRECTION('center_axis',(-0.707106781186548,-0.707106781186548,0.));
#1141=DIRECTION('ref_axis',(0.,0.,1.));
#1142=DIRECTION('',(0.,0.,1.));
#1143=DIRECTION('',(-0.654653670707975,0.654653670707975,0.377964473009236));
#1144=DIRECTION('',(0.,0.,-1.));
#1145=DIRECTION('',(-0.654653670707982,0.654653670707982,-0.377964473009211));
#1146=DIRECTION('center_axis',(-0.353553390593271,-0.707106781186553,0.61237243569579));
#1147=DIRECTION('ref_axis',(0.866025403784438,0.,0.5));
#1148=DIRECTION('',(0.866025403784438,0.,0.5));
#1149=DIRECTION('',(0.,0.654653670707971,0.75592894601846));
#1150=DIRECTION('',(-0.866025403784438,0.,-0.5));
#1151=DIRECTION('center_axis',(0.353553390593272,-0.707106781186553,0.612372435695789));
#1152=DIRECTION('ref_axis',(0.866025403784438,0.,-0.500000000000001));
#1153=DIRECTION('',(0.866025403784438,0.,-0.500000000000001));
#1154=DIRECTION('',(0.654653670707974,0.654653670707974,0.377964473009237));
#1155=DIRECTION('',(-0.866025403784438,0.,0.500000000000001));
#1156=DIRECTION('center_axis',(0.707106781186548,-0.707106781186548,0.));
#1157=DIRECTION('ref_axis',(0.,0.,-1.));
#1158=DIRECTION('',(0.,0.,-1.));
#1159=DIRECTION('',(0.654653670707978,0.654653670707978,-0.377964473009223));
#1160=DIRECTION('',(0.,0.,1.));
#1161=DIRECTION('center_axis',(0.353553390593276,-0.707106781186543,-0.612372435695799));
#1162=DIRECTION('ref_axis',(-0.866025403784439,0.,-0.499999999999999));
#1163=DIRECTION('',(0.866025403784439,0.,0.499999999999999));
#1164=DIRECTION('',(-0.866025403784439,0.,-0.499999999999999));
#1165=DIRECTION('',(1.45362315675075E-14,0.654653670707982,-0.755928946018451));
#1166=DIRECTION('center_axis',(-0.353553390593278,-0.70710678118654,-0.612372435695801));
#1167=DIRECTION('ref_axis',(-0.866025403784439,0.,0.5));
#1168=DIRECTION('',(0.866025403784439,0.,-0.5));
#1169=DIRECTION('',(-0.866025403784439,0.,0.5));
#1170=DIRECTION('center_axis',(0.499999999999999,0.,-0.866025403784439));
#1171=DIRECTION('ref_axis',(0.866025403784439,0.,0.499999999999999));
#1172=DIRECTION('',(0.,-1.,0.));
#1173=DIRECTION('',(-0.866025403784439,0.,-0.499999999999999));
#1174=DIRECTION('',(0.,-1.,0.));
#1175=DIRECTION('center_axis',(-0.5,0.,-0.866025403784439));
#1176=DIRECTION('ref_axis',(0.866025403784439,0.,-0.5));
#1177=DIRECTION('',(0.,-1.,0.));
#1178=DIRECTION('',(-0.866025403784439,0.,0.5));
#1179=DIRECTION('center_axis',(-1.,0.,0.));
#1180=DIRECTION('ref_axis',(0.,0.,-1.));
#1181=DIRECTION('',(0.,-1.,0.));
#1182=DIRECTION('',(0.,0.,1.));
#1183=DIRECTION('center_axis',(0.,-1.,0.));
#1184=DIRECTION('ref_axis',(0.,0.,-1.));
#1185=DIRECTION('center_axis',(0.707106781186548,-0.707106781186548,-6.79869977755259E-16));
#1186=DIRECTION('ref_axis',(-9.61481343191782E-16,0.,-1.));
#1187=DIRECTION('',(-9.61481343191782E-16,0.,-1.));
#1188=DIRECTION('',(0.654653670707976,0.654653670707976,-0.377964473009233));
#1189=DIRECTION('',(9.61481343191782E-16,0.,1.));
#1190=DIRECTION('',(0.654653670707977,0.654653670707977,0.377964473009226));
#1191=DIRECTION('center_axis',(0.353553390593271,-0.70710678118655,-0.612372435695793));
#1192=DIRECTION('ref_axis',(-0.86602540378444,0.,-0.499999999999998));
#1193=DIRECTION('',(-0.86602540378444,0.,-0.499999999999998));
#1194=DIRECTION('',(7.2681157837537E-15,0.654653670707976,-0.755928946018455));
#1195=DIRECTION('',(0.86602540378444,0.,0.499999999999998));
#1196=DIRECTION('center_axis',(-0.353553390593274,-0.707106781186547,-0.612372435695795));
#1197=DIRECTION('ref_axis',(-0.866025403784439,0.,0.499999999999999));
#1198=DIRECTION('',(-0.866025403784439,0.,0.499999999999999));
#1199=DIRECTION('',(-0.654653670707977,0.654653670707977,-0.377964473009226));
#1200=DIRECTION('',(0.866025403784439,0.,-0.499999999999999));
#1201=DIRECTION('center_axis',(-0.707106781186548,-0.707106781186548,6.79869977755258E-16));
#1202=DIRECTION('ref_axis',(9.61481343191781E-16,0.,1.));
#1203=DIRECTION('',(9.61481343191781E-16,0.,1.));
#1204=DIRECTION('',(-0.654653670707977,0.654653670707977,0.377964473009226));
#1205=DIRECTION('',(-9.61481343191781E-16,0.,-1.));
#1206=DIRECTION('center_axis',(-0.353553390593273,-0.707106781186548,0.612372435695795));
#1207=DIRECTION('ref_axis',(0.866025403784439,0.,0.499999999999999));
#1208=DIRECTION('',(-0.866025403784439,0.,-0.499999999999999));
#1209=DIRECTION('',(0.866025403784439,0.,0.499999999999999));
#1210=DIRECTION('',(0.,0.654653670707976,0.755928946018455));
#1211=DIRECTION('center_axis',(0.353553390593274,-0.707106781186548,0.612372435695794));
#1212=DIRECTION('ref_axis',(0.866025403784438,0.,-0.500000000000001));
#1213=DIRECTION('',(-0.866025403784438,0.,0.500000000000001));
#1214=DIRECTION('',(0.866025403784438,0.,-0.500000000000001));
#1215=DIRECTION('center_axis',(-0.499999999999999,0.,0.866025403784439));
#1216=DIRECTION('ref_axis',(-0.866025403784439,0.,-0.499999999999999));
#1217=DIRECTION('',(0.,-1.,0.));
#1218=DIRECTION('',(0.866025403784439,0.,0.499999999999999));
#1219=DIRECTION('',(0.,-1.,0.));
#1220=DIRECTION('center_axis',(0.500000000000001,0.,0.866025403784438));
#1221=DIRECTION('ref_axis',(-0.866025403784438,0.,0.500000000000001));
#1222=DIRECTION('',(0.,-1.,0.));
#1223=DIRECTION('',(0.866025403784438,0.,-0.500000000000001));
#1224=DIRECTION('center_axis',(1.,0.,-9.61481343191782E-16));
#1225=DIRECTION('ref_axis',(9.61481343191782E-16,0.,1.));
#1226=DIRECTION('',(0.,-1.,0.));
#1227=DIRECTION('',(-9.61481343191782E-16,0.,-1.));
#1228=DIRECTION('center_axis',(0.,-1.,0.));
#1229=DIRECTION('ref_axis',(0.,0.,-1.));
#1230=DIRECTION('center_axis',(-0.707106781186548,-0.707106781186548,6.79869977755259E-16));
#1231=DIRECTION('ref_axis',(9.61481343191782E-16,0.,1.));
#1232=DIRECTION('',(9.61481343191782E-16,0.,1.));
#1233=DIRECTION('',(-0.654653670707977,0.654653670707977,0.377964473009226));
#1234=DIRECTION('',(-9.61481343191782E-16,0.,-1.));
#1235=DIRECTION('',(-0.654653670707979,0.654653670707979,-0.377964473009222));
#1236=DIRECTION('center_axis',(-0.353553390593274,-0.707106781186547,0.612372435695795));
#1237=DIRECTION('ref_axis',(0.866025403784438,0.,0.5));
#1238=DIRECTION('',(0.866025403784438,0.,0.5));
#1239=DIRECTION('',(0.,0.654653670707978,0.755928946018454));
#1240=DIRECTION('',(-0.866025403784438,0.,-0.5));
#1241=DIRECTION('center_axis',(0.353553390593274,-0.707106781186547,0.612372435695795));
#1242=DIRECTION('ref_axis',(0.866025403784439,0.,-0.5));
#1243=DIRECTION('',(0.866025403784439,0.,-0.5));
#1244=DIRECTION('',(0.654653670707977,0.654653670707977,0.377964473009226));
#1245=DIRECTION('',(-0.866025403784439,0.,0.5));
#1246=DIRECTION('center_axis',(0.707106781186548,-0.707106781186548,0.));
#1247=DIRECTION('ref_axis',(0.,0.,-1.));
#1248=DIRECTION('',(0.,0.,-1.));
#1249=DIRECTION('',(0.654653670707977,0.654653670707977,-0.377964473009226));
#1250=DIRECTION('',(0.,0.,1.));
#1251=DIRECTION('center_axis',(0.353553390593273,-0.707106781186548,-0.612372435695795));
#1252=DIRECTION('ref_axis',(-0.866025403784439,0.,-0.499999999999999));
#1253=DIRECTION('',(0.866025403784439,0.,0.499999999999999));
#1254=DIRECTION('',(-0.866025403784439,0.,-0.499999999999999));
#1255=DIRECTION('',(0.,0.654653670707979,-0.755928946018453));
#1256=DIRECTION('center_axis',(-0.353553390593275,-0.707106781186546,-0.612372435695796));
#1257=DIRECTION('ref_axis',(-0.866025403784438,0.,0.5));
#1258=DIRECTION('',(0.866025403784438,0.,-0.5));
#1259=DIRECTION('',(-0.866025403784438,0.,0.5));
#1260=DIRECTION('center_axis',(0.499999999999999,0.,-0.866025403784439));
#1261=DIRECTION('ref_axis',(0.866025403784439,0.,0.499999999999999));
#1262=DIRECTION('',(0.,-1.,0.));
#1263=DIRECTION('',(-0.866025403784439,0.,-0.499999999999999));
#1264=DIRECTION('',(0.,-1.,0.));
#1265=DIRECTION('center_axis',(-0.5,0.,-0.866025403784438));
#1266=DIRECTION('ref_axis',(0.866025403784438,0.,-0.5));
#1267=DIRECTION('',(0.,-1.,0.));
#1268=DIRECTION('',(-0.866025403784438,0.,0.5));
#1269=DIRECTION('center_axis',(-1.,0.,9.61481343191782E-16));
#1270=DIRECTION('ref_axis',(-9.61481343191782E-16,0.,-1.));
#1271=DIRECTION('',(0.,-1.,0.));
#1272=DIRECTION('',(9.61481343191782E-16,0.,1.));
#1273=DIRECTION('center_axis',(0.,-1.,0.));
#1274=DIRECTION('ref_axis',(0.,0.,-1.));
#1275=DIRECTION('center_axis',(-0.707106781186548,-0.707106781186548,0.));
#1276=DIRECTION('ref_axis',(0.,0.,1.));
#1277=DIRECTION('',(0.,0.,1.));
#1278=DIRECTION('',(-0.65465367070798,0.65465367070798,0.377964473009217));
#1279=DIRECTION('',(0.,0.,-1.));
#1280=DIRECTION('',(-0.654653670707979,0.654653670707979,-0.377964473009222));
#1281=DIRECTION('center_axis',(-0.353553390593277,-0.707106781186542,0.6123724356958));
#1282=DIRECTION('ref_axis',(0.866025403784439,0.,0.5));
#1283=DIRECTION('',(0.866025403784439,0.,0.5));
#1284=DIRECTION('',(1.45362315675074E-14,0.654653670707976,0.755928946018455));
#1285=DIRECTION('',(-0.866025403784439,0.,-0.5));
#1286=DIRECTION('center_axis',(0.353553390593271,-0.707106781186554,0.612372435695789));
#1287=DIRECTION('ref_axis',(0.866025403784438,0.,-0.5));
#1288=DIRECTION('',(0.866025403784438,0.,-0.500000000000001));
#1289=DIRECTION('',(0.654653670707975,0.654653670707975,0.377964473009236));
#1290=DIRECTION('',(-0.866025403784438,0.,0.500000000000001));
#1291=DIRECTION('center_axis',(0.707106781186548,-0.707106781186548,0.));
#1292=DIRECTION('ref_axis',(0.,0.,-1.));
#1293=DIRECTION('',(0.,0.,-1.));
#1294=DIRECTION('',(0.654653670707979,0.654653670707979,-0.377964473009222));
#1295=DIRECTION('',(0.,0.,1.));
#1296=DIRECTION('center_axis',(0.353553390593275,-0.707106781186543,-0.612372435695799));
#1297=DIRECTION('ref_axis',(-0.866025403784439,0.,-0.499999999999999));
#1298=DIRECTION('',(0.866025403784439,0.,0.499999999999999));
#1299=DIRECTION('',(-0.866025403784439,0.,-0.499999999999999));
#1300=DIRECTION('',(0.,0.654653670707981,-0.755928946018451));
#1301=DIRECTION('center_axis',(-0.353553390593276,-0.707106781186543,-0.612372435695798));
#1302=DIRECTION('ref_axis',(-0.866025403784439,0.,0.5));
#1303=DIRECTION('',(0.866025403784439,0.,-0.5));
#1304=DIRECTION('',(-0.866025403784438,0.,0.5));
#1305=DIRECTION('center_axis',(0.499999999999999,0.,-0.866025403784439));
#1306=DIRECTION('ref_axis',(0.866025403784439,0.,0.499999999999999));
#1307=DIRECTION('',(0.,-1.,0.));
#1308=DIRECTION('',(-0.866025403784439,0.,-0.499999999999999));
#1309=DIRECTION('',(0.,-1.,0.));
#1310=DIRECTION('center_axis',(-0.5,0.,-0.866025403784439));
#1311=DIRECTION('ref_axis',(0.866025403784439,0.,-0.5));
#1312=DIRECTION('',(0.,-1.,0.));
#1313=DIRECTION('',(-0.866025403784439,0.,0.5));
#1314=DIRECTION('center_axis',(-1.,0.,0.));
#1315=DIRECTION('ref_axis',(0.,0.,-1.));
#1316=DIRECTION('',(0.,-1.,0.));
#1317=DIRECTION('',(0.,0.,1.));
#1318=DIRECTION('center_axis',(0.,-1.,0.));
#1319=DIRECTION('ref_axis',(0.,0.,-1.));
#1320=DIRECTION('center_axis',(-0.5,0.,0.866025403784438));
#1321=DIRECTION('ref_axis',(-0.866025403784438,0.,-0.5));
#1322=DIRECTION('',(0.,-1.,0.));
#1323=DIRECTION('',(0.866025403784438,0.,0.5));
#1324=DIRECTION('center_axis',(0.500000000000001,0.,0.866025403784438));
#1325=DIRECTION('ref_axis',(-0.866025403784438,0.,0.500000000000001));
#1326=DIRECTION('',(0.,-1.,0.));
#1327=DIRECTION('',(0.866025403784438,0.,-0.500000000000001));
#1328=DIRECTION('center_axis',(1.,0.,0.));
#1329=DIRECTION('ref_axis',(0.,0.,1.));
#1330=DIRECTION('',(0.,0.,-1.));
#1331=DIRECTION('center_axis',(-0.5,0.,0.866025403784439));
#1332=DIRECTION('ref_axis',(-0.866025403784439,0.,-0.5));
#1333=DIRECTION('',(0.,-1.,0.));
#1334=DIRECTION('',(0.866025403784439,0.,0.5));
#1335=DIRECTION('center_axis',(0.500000000000001,0.,0.866025403784438));
#1336=DIRECTION('ref_axis',(-0.866025403784438,0.,0.500000000000001));
#1337=DIRECTION('',(0.,-1.,0.));
#1338=DIRECTION('',(0.866025403784438,0.,-0.500000000000001));
#1339=DIRECTION('center_axis',(1.,0.,0.));
#1340=DIRECTION('ref_axis',(0.,0.,1.));
#1341=DIRECTION('',(0.,0.,-1.));
#1342=DIRECTION('center_axis',(0.499999999999998,0.,-0.86602540378444));
#1343=DIRECTION('ref_axis',(0.86602540378444,0.,0.499999999999998));
#1344=DIRECTION('',(0.,-1.,0.));
#1345=DIRECTION('',(-0.86602540378444,0.,-0.499999999999998));
#1346=DIRECTION('center_axis',(-0.5,0.,-0.866025403784439));
#1347=DIRECTION('ref_axis',(0.866025403784439,0.,-0.499999999999999));
#1348=DIRECTION('',(0.,-1.,0.));
#1349=DIRECTION('',(-0.866025403784439,0.,0.499999999999999));
#1350=DIRECTION('center_axis',(-1.,0.,9.61481343191781E-16));
#1351=DIRECTION('ref_axis',(-9.61481343191781E-16,0.,-1.));
#1352=DIRECTION('',(9.61481343191781E-16,0.,1.));
#1353=DIRECTION('center_axis',(-0.5,0.,0.866025403784439));
#1354=DIRECTION('ref_axis',(-0.866025403784438,0.,-0.5));
#1355=DIRECTION('',(0.,-1.,0.));
#1356=DIRECTION('',(0.866025403784438,0.,0.5));
#1357=DIRECTION('center_axis',(0.5,0.,0.866025403784439));
#1358=DIRECTION('ref_axis',(-0.866025403784439,0.,0.5));
#1359=DIRECTION('',(0.,-1.,0.));
#1360=DIRECTION('',(0.866025403784439,0.,-0.5));
#1361=DIRECTION('center_axis',(1.,0.,0.));
#1362=DIRECTION('ref_axis',(0.,0.,1.));
#1363=DIRECTION('',(0.,0.,-1.));
#1364=DIRECTION('center_axis',(0.,-0.707106781186548,-0.707106781186548));
#1365=DIRECTION('ref_axis',(0.,-0.707106781186548,0.707106781186548));
#1366=DIRECTION('',(-1.,0.,0.));
#1367=DIRECTION('center_axis',(0.,1.,0.));
#1368=DIRECTION('ref_axis',(0.,0.,-1.));
#1369=DIRECTION('center_axis',(0.,-1.,0.));
#1370=DIRECTION('ref_axis',(0.,0.,1.));
#1371=CARTESIAN_POINT('',(0.,0.,0.));
#1372=CARTESIAN_POINT('Origin',(-10.45647058825,5.04999999999998,-12.3575735931288));
#1373=CARTESIAN_POINT('',(-36.09647058825,5.24999999999998,-12.3575735931288));
#1374=CARTESIAN_POINT('',(-36.09647058825,5.04999999999998,-12.3575735931288));
#1375=CARTESIAN_POINT('',(-36.09647058825,4.52499999999998,-12.3575735931288));
#1376=CARTESIAN_POINT('',(-10.45647058825,5.24999999999998,-12.3575735931288));
#1377=CARTESIAN_POINT('',(-10.44147058825,5.24999999999998,-12.3575735931288));
#1378=CARTESIAN_POINT('',(-10.45647058825,5.04999999999998,-12.3575735931288));
#1379=CARTESIAN_POINT('',(-10.45647058825,5.27499999999998,-12.3575735931288));
#1380=CARTESIAN_POINT('',(-10.44147058825,5.04999999999999,-12.3575735931288));
#1381=CARTESIAN_POINT('Origin',(-10.45647058825,5.24999999999998,12.3575735931288));
#1382=CARTESIAN_POINT('',(-36.09647058825,5.04999999999998,12.3575735931288));
#1383=CARTESIAN_POINT('',(-36.09647058825,5.24999999999998,12.3575735931288));
#1384=CARTESIAN_POINT('',(-36.09647058825,4.62499999999998,12.3575735931288));
#1385=CARTESIAN_POINT('',(-10.45647058825,5.04999999999998,12.3575735931288));
#1386=CARTESIAN_POINT('',(-10.44147058825,5.04999999999999,12.3575735931288));
#1387=CARTESIAN_POINT('',(-10.45647058825,5.24999999999998,12.3575735931288));
#1388=CARTESIAN_POINT('',(-10.45647058825,5.37499999999998,12.3575735931288));
#1389=CARTESIAN_POINT('',(-10.44147058825,5.24999999999998,12.3575735931288));
#1390=CARTESIAN_POINT('Origin',(-10.42647058825,2.52121320343558,9.82878679656442));
#1391=CARTESIAN_POINT('',(-36.09647058825,2.49999999999998,9.80757359312882));
#1392=CARTESIAN_POINT('',(-36.09647058825,0.433713203435581,7.74128679656442));
#1393=CARTESIAN_POINT('',(-10.45647058825,2.49999999999998,9.80757359312882));
#1394=CARTESIAN_POINT('',(-10.42647058825,2.49999999999998,9.80757359312882));
#1395=CARTESIAN_POINT('',(-10.45647058825,-2.40378679656442,4.90378679656442));
#1396=CARTESIAN_POINT('Origin',(-10.45647058825,5.49999999999998,-12.85));
#1397=CARTESIAN_POINT('',(-10.45647058825,5.24999999999998,9.99200722162641E-15));
#1398=CARTESIAN_POINT('',(-10.45647058825,2.49999999999998,-9.8075735931288));
#1399=CARTESIAN_POINT('',(-10.45647058825,2.49999999999998,-11.35));
#1400=CARTESIAN_POINT('',(-10.45647058825,5.52121320343558,-12.8287867965644));
#1401=CARTESIAN_POINT('Origin',(-36.09647058825,3.99999999999998,1.11022302462516E-14));
#1402=CARTESIAN_POINT('',(-36.09647058825,2.49999999999998,-9.8075735931288));
#1403=CARTESIAN_POINT('',(-36.09647058825,1.93371320343558,-9.24128679656439));
#1404=CARTESIAN_POINT('',(-36.09647058825,2.49999999999998,-4.92499999999999));
#1405=CARTESIAN_POINT('',(-36.09647058825,5.24999999999998,6.42500000000001));
#1406=CARTESIAN_POINT('Origin',(-32.99647058825,-0.400000000000017,-4.23022332393917));
#1407=CARTESIAN_POINT('',(-32.89647058825,-0.500000000000017,-5.84680407767013));
#1408=CARTESIAN_POINT('',(-32.89647058825,-0.500000000000017,-3.76834310858747));
#1409=CARTESIAN_POINT('',(-32.89647058825,-0.500000000000017,-4.23022332393917));
#1410=CARTESIAN_POINT('',(-33.09647058825,-0.300000000000017,-3.65287305474954));
#1411=CARTESIAN_POINT('',(-32.89647058825,-0.500000000000017,-3.76834310858747));
#1412=CARTESIAN_POINT('',(-33.09647058825,-0.300000000000017,-5.96227413150805));
#1413=CARTESIAN_POINT('',(-33.09647058825,-0.300000000000017,-4.23022332393917));
#1414=CARTESIAN_POINT('',(-32.89647058825,-0.500000000000017,-5.84680407767013));
#1415=CARTESIAN_POINT('Origin',(-31.54647058825,-0.400000000000017,-2.87345019134355));
#1416=CARTESIAN_POINT('',(-31.09647058825,-0.500000000000017,-2.72911262404614));
#1417=CARTESIAN_POINT('',(-31.49647058825,-0.500000000000017,-2.96005273172199));
#1418=CARTESIAN_POINT('',(-31.09647058825,-0.300000000000017,-2.49817251637029));
#1419=CARTESIAN_POINT('',(-31.09647058825,-0.500000000000017,-2.72911262404614));
#1420=CARTESIAN_POINT('',(-31.59647058825,-0.300000000000017,-2.7868476509651));
#1421=CARTESIAN_POINT('Origin',(-29.64647058825,-0.400000000000017,-3.45080046053317));
#1422=CARTESIAN_POINT('',(-29.29647058825,-0.500000000000017,-3.76834310858747));
#1423=CARTESIAN_POINT('',(-29.69647058825,-0.500000000000017,-3.53740300091162));
#1424=CARTESIAN_POINT('',(-29.09647058825,-0.300000000000017,-3.65287305474954));
#1425=CARTESIAN_POINT('',(-29.29647058825,-0.500000000000017,-3.76834310858747));
#1426=CARTESIAN_POINT('',(-29.59647058825,-0.300000000000017,-3.36419792015473));
#1427=CARTESIAN_POINT('Origin',(-29.19647058825,-0.400000000000017,-5.38492386231842));
#1428=CARTESIAN_POINT('',(-29.29647058825,-0.500000000000017,-5.84680407767013));
#1429=CARTESIAN_POINT('',(-29.29647058825,-0.500000000000017,-5.38492386231842));
#1430=CARTESIAN_POINT('',(-29.09647058825,-0.300000000000017,-5.96227413150805));
#1431=CARTESIAN_POINT('',(-29.29647058825,-0.500000000000017,-5.84680407767013));
#1432=CARTESIAN_POINT('',(-29.09647058825,-0.300000000000017,-5.38492386231842));
#1433=CARTESIAN_POINT('Origin',(-30.64647058825,-0.400000000000017,-6.74169699491405));
#1434=CARTESIAN_POINT('',(-31.09647058825,-0.300000000000017,-7.1169746698873));
#1435=CARTESIAN_POINT('',(-30.59647058825,-0.300000000000017,-6.82829953529249));
#1436=CARTESIAN_POINT('',(-31.09647058825,-0.500000000000017,-6.88603456221145));
#1437=CARTESIAN_POINT('',(-30.69647058825,-0.500000000000017,-6.6550944545356));
#1438=CARTESIAN_POINT('',(-31.09647058825,-0.500000000000017,-6.88603456221145));
#1439=CARTESIAN_POINT('Origin',(-32.54647058825,-0.400000000000017,-6.16434672572442));
#1440=CARTESIAN_POINT('',(-32.59647058825,-0.300000000000017,-6.25094926610286));
#1441=CARTESIAN_POINT('',(-32.49647058825,-0.500000000000017,-6.07774418534598));
#1442=CARTESIAN_POINT('Origin',(-31.09647058825,2.49999999999998,-7.1169746698873));
#1443=CARTESIAN_POINT('',(-31.09647058825,2.49999999999998,-7.1169746698873));
#1444=CARTESIAN_POINT('',(-31.09647058825,2.49999999999998,-7.1169746698873));
#1445=CARTESIAN_POINT('',(-29.09647058825,2.49999999999998,-5.96227413150805));
#1446=CARTESIAN_POINT('',(-23.936937929516,2.49999999999998,-2.9834165620953));
#1447=CARTESIAN_POINT('',(-29.09647058825,2.49999999999998,-5.96227413150805));
#1448=CARTESIAN_POINT('Origin',(-33.09647058825,2.49999999999998,-5.96227413150805));
#1449=CARTESIAN_POINT('',(-33.09647058825,2.49999999999998,-5.96227413150805));
#1450=CARTESIAN_POINT('',(-33.09647058825,2.49999999999998,-5.96227413150805));
#1451=CARTESIAN_POINT('',(-23.753503246984,2.49999999999998,-11.3564388410179));
#1452=CARTESIAN_POINT('Origin',(-33.09647058825,2.49999999999998,-3.65287305474954));
#1453=CARTESIAN_POINT('',(-33.09647058825,2.49999999999998,-3.65287305474954));
#1454=CARTESIAN_POINT('',(-33.09647058825,2.49999999999998,-3.65287305474954));
#1455=CARTESIAN_POINT('',(-33.09647058825,2.49999999999998,-6.75143652737477));
#1456=CARTESIAN_POINT('Origin',(-31.09647058825,-0.500000000000017,-4.8075735931288));
#1457=CARTESIAN_POINT('Origin',(-13.55647058825,-0.400000000000017,-5.38492386231842));
#1458=CARTESIAN_POINT('',(-13.65647058825,-0.500000000000017,-3.76834310858747));
#1459=CARTESIAN_POINT('',(-13.65647058825,-0.500000000000017,-5.84680407767012));
#1460=CARTESIAN_POINT('',(-13.65647058825,-0.500000000000017,-5.38492386231842));
#1461=CARTESIAN_POINT('',(-13.45647058825,-0.300000000000017,-5.96227413150805));
#1462=CARTESIAN_POINT('',(-13.65647058825,-0.500000000000017,-5.84680407767012));
#1463=CARTESIAN_POINT('',(-13.45647058825,-0.300000000000017,-3.65287305474955));
#1464=CARTESIAN_POINT('',(-13.45647058825,-0.300000000000017,-5.38492386231842));
#1465=CARTESIAN_POINT('',(-13.65647058825,-0.500000000000017,-3.76834310858747));
#1466=CARTESIAN_POINT('Origin',(-15.00647058825,-0.400000000000017,-6.74169699491404));
#1467=CARTESIAN_POINT('',(-15.45647058825,-0.500000000000017,-6.88603456221145));
#1468=CARTESIAN_POINT('',(-15.05647058825,-0.500000000000017,-6.6550944545356));
#1469=CARTESIAN_POINT('',(-15.45647058825,-0.300000000000017,-7.1169746698873));
#1470=CARTESIAN_POINT('',(-15.45647058825,-0.500000000000017,-6.88603456221145));
#1471=CARTESIAN_POINT('',(-14.95647058825,-0.300000000000017,-6.82829953529249));
#1472=CARTESIAN_POINT('Origin',(-16.90647058825,-0.400000000000017,-6.16434672572442));
#1473=CARTESIAN_POINT('',(-17.25647058825,-0.500000000000017,-5.84680407767012));
#1474=CARTESIAN_POINT('',(-16.85647058825,-0.500000000000017,-6.07774418534597));
#1475=CARTESIAN_POINT('',(-17.45647058825,-0.300000000000017,-5.96227413150805));
#1476=CARTESIAN_POINT('',(-17.25647058825,-0.500000000000017,-5.84680407767012));
#1477=CARTESIAN_POINT('',(-16.95647058825,-0.300000000000017,-6.25094926610286));
#1478=CARTESIAN_POINT('Origin',(-17.35647058825,-0.400000000000017,-4.23022332393917));
#1479=CARTESIAN_POINT('',(-17.25647058825,-0.500000000000017,-3.76834310858747));
#1480=CARTESIAN_POINT('',(-17.25647058825,-0.500000000000017,-4.23022332393917));
#1481=CARTESIAN_POINT('',(-17.45647058825,-0.300000000000017,-3.65287305474954));
#1482=CARTESIAN_POINT('',(-17.25647058825,-0.500000000000017,-3.76834310858747));
#1483=CARTESIAN_POINT('',(-17.45647058825,-0.300000000000017,-4.23022332393917));
#1484=CARTESIAN_POINT('Origin',(-15.90647058825,-0.400000000000017,-2.87345019134355));
#1485=CARTESIAN_POINT('',(-15.45647058825,-0.300000000000017,-2.49817251637029));
#1486=CARTESIAN_POINT('',(-15.95647058825,-0.300000000000017,-2.7868476509651));
#1487=CARTESIAN_POINT('',(-15.45647058825,-0.500000000000017,-2.72911262404614));
#1488=CARTESIAN_POINT('',(-15.85647058825,-0.500000000000017,-2.96005273172199));
#1489=CARTESIAN_POINT('',(-15.45647058825,-0.500000000000017,-2.72911262404614));
#1490=CARTESIAN_POINT('Origin',(-14.00647058825,-0.400000000000017,-3.45080046053318));
#1491=CARTESIAN_POINT('',(-13.95647058825,-0.300000000000017,-3.36419792015473));
#1492=CARTESIAN_POINT('',(-14.05647058825,-0.500000000000017,-3.53740300091162));
#1493=CARTESIAN_POINT('Origin',(-15.45647058825,2.49999999999998,-2.49817251637029));
#1494=CARTESIAN_POINT('',(-15.45647058825,2.49999999999998,-2.49817251637029));
#1495=CARTESIAN_POINT('',(-15.45647058825,2.49999999999998,-2.49817251637029));
#1496=CARTESIAN_POINT('',(-17.45647058825,2.49999999999998,-3.65287305474954));
#1497=CARTESIAN_POINT('',(-15.161937929516,2.49999999999998,-2.32812400656507));
#1498=CARTESIAN_POINT('',(-17.45647058825,2.49999999999998,-3.65287305474954));
#1499=CARTESIAN_POINT('Origin',(-13.45647058825,2.49999999999998,-3.65287305474955));
#1500=CARTESIAN_POINT('',(-13.45647058825,2.49999999999998,-3.65287305474955));
#1501=CARTESIAN_POINT('',(-13.45647058825,2.49999999999998,-3.65287305474955));
#1502=CARTESIAN_POINT('',(-10.978503246984,2.49999999999998,-5.08352816627257));
#1503=CARTESIAN_POINT('Origin',(-13.45647058825,2.49999999999998,-5.96227413150805));
#1504=CARTESIAN_POINT('',(-13.45647058825,2.49999999999998,-5.96227413150805));
#1505=CARTESIAN_POINT('',(-13.45647058825,2.49999999999998,-5.96227413150805));
#1506=CARTESIAN_POINT('',(-13.45647058825,2.49999999999998,-7.90613706575402));
#1507=CARTESIAN_POINT('Origin',(-15.45647058825,-0.500000000000017,-4.80757359312879));
#1508=CARTESIAN_POINT('Origin',(-17.35647058825,-0.400000000000017,5.38492386231845));
#1509=CARTESIAN_POINT('',(-17.25647058825,-0.500000000000017,3.76834310858749));
#1510=CARTESIAN_POINT('',(-17.25647058825,-0.500000000000017,5.84680407767015));
#1511=CARTESIAN_POINT('',(-17.25647058825,-0.500000000000017,5.38492386231845));
#1512=CARTESIAN_POINT('',(-17.45647058825,-0.300000000000017,5.96227413150807));
#1513=CARTESIAN_POINT('',(-17.25647058825,-0.500000000000017,5.84680407767015));
#1514=CARTESIAN_POINT('',(-17.45647058825,-0.300000000000017,3.65287305474957));
#1515=CARTESIAN_POINT('',(-17.45647058825,-0.300000000000017,5.38492386231845));
#1516=CARTESIAN_POINT('',(-17.25647058825,-0.500000000000017,3.76834310858749));
#1517=CARTESIAN_POINT('Origin',(-15.90647058825,-0.400000000000017,6.74169699491407));
#1518=CARTESIAN_POINT('',(-15.45647058825,-0.500000000000017,6.88603456221147));
#1519=CARTESIAN_POINT('',(-15.85647058825,-0.500000000000017,6.65509445453562));
#1520=CARTESIAN_POINT('',(-15.45647058825,-0.300000000000017,7.11697466988732));
#1521=CARTESIAN_POINT('',(-15.45647058825,-0.500000000000017,6.88603456221147));
#1522=CARTESIAN_POINT('',(-15.95647058825,-0.300000000000017,6.82829953529251));
#1523=CARTESIAN_POINT('Origin',(-14.00647058825,-0.400000000000017,6.16434672572444));
#1524=CARTESIAN_POINT('',(-13.65647058825,-0.500000000000017,5.84680407767015));
#1525=CARTESIAN_POINT('',(-14.05647058825,-0.500000000000017,6.077744185346));
#1526=CARTESIAN_POINT('',(-13.45647058825,-0.300000000000017,5.96227413150807));
#1527=CARTESIAN_POINT('',(-13.65647058825,-0.500000000000017,5.84680407767015));
#1528=CARTESIAN_POINT('',(-13.95647058825,-0.300000000000017,6.25094926610288));
#1529=CARTESIAN_POINT('Origin',(-13.55647058825,-0.400000000000017,4.23022332393919));
#1530=CARTESIAN_POINT('',(-13.65647058825,-0.500000000000017,3.76834310858749));
#1531=CARTESIAN_POINT('',(-13.65647058825,-0.500000000000017,4.23022332393919));
#1532=CARTESIAN_POINT('',(-13.45647058825,-0.300000000000017,3.65287305474957));
#1533=CARTESIAN_POINT('',(-13.65647058825,-0.500000000000017,3.76834310858749));
#1534=CARTESIAN_POINT('',(-13.45647058825,-0.300000000000017,4.23022332393919));
#1535=CARTESIAN_POINT('Origin',(-15.00647058825,-0.400000000000017,2.87345019134357));
#1536=CARTESIAN_POINT('',(-15.45647058825,-0.300000000000017,2.49817251637032));
#1537=CARTESIAN_POINT('',(-14.95647058825,-0.300000000000017,2.78684765096513));
#1538=CARTESIAN_POINT('',(-15.45647058825,-0.500000000000017,2.72911262404617));
#1539=CARTESIAN_POINT('',(-15.05647058825,-0.500000000000017,2.96005273172202));
#1540=CARTESIAN_POINT('',(-15.45647058825,-0.500000000000017,2.72911262404617));
#1541=CARTESIAN_POINT('Origin',(-16.90647058825,-0.400000000000017,3.4508004605332));
#1542=CARTESIAN_POINT('',(-16.95647058825,-0.300000000000017,3.36419792015476));
#1543=CARTESIAN_POINT('',(-16.85647058825,-0.500000000000017,3.53740300091164));
#1544=CARTESIAN_POINT('Origin',(-15.45647058825,2.49999999999998,2.49817251637032));
#1545=CARTESIAN_POINT('',(-15.45647058825,2.49999999999998,2.49817251637032));
#1546=CARTESIAN_POINT('',(-15.45647058825,2.49999999999998,2.49817251637032));
#1547=CARTESIAN_POINT('',(-13.45647058825,2.49999999999998,3.65287305474957));
#1548=CARTESIAN_POINT('',(-16.2436783606224,2.49999999999998,2.04367789708297));
#1549=CARTESIAN_POINT('',(-13.45647058825,2.49999999999998,3.65287305474957));
#1550=CARTESIAN_POINT('Origin',(-17.45647058825,2.49999999999998,3.65287305474957));
#1551=CARTESIAN_POINT('',(-17.45647058825,2.49999999999998,3.65287305474957));
#1552=CARTESIAN_POINT('',(-17.45647058825,2.49999999999998,3.65287305474957));
#1553=CARTESIAN_POINT('',(-11.8967628158776,2.49999999999998,0.442974275754721));
#1554=CARTESIAN_POINT('Origin',(-17.45647058825,2.49999999999998,5.96227413150807));
#1555=CARTESIAN_POINT('',(-17.45647058825,2.49999999999998,5.96227413150807));
#1556=CARTESIAN_POINT('',(-17.45647058825,2.49999999999998,5.96227413150807));
#1557=CARTESIAN_POINT('',(-17.45647058825,2.49999999999998,-1.94386293424596));
#1558=CARTESIAN_POINT('Origin',(-15.45647058825,-0.500000000000017,4.80757359312882));
#1559=CARTESIAN_POINT('Origin',(-32.99647058825,-0.400000000000017,5.38492386231845));
#1560=CARTESIAN_POINT('',(-32.89647058825,-0.500000000000017,3.76834310858749));
#1561=CARTESIAN_POINT('',(-32.89647058825,-0.500000000000017,5.84680407767015));
#1562=CARTESIAN_POINT('',(-32.89647058825,-0.500000000000017,5.38492386231845));
#1563=CARTESIAN_POINT('',(-33.09647058825,-0.300000000000017,5.96227413150807));
#1564=CARTESIAN_POINT('',(-32.89647058825,-0.500000000000017,5.84680407767015));
#1565=CARTESIAN_POINT('',(-33.09647058825,-0.300000000000017,3.65287305474957));
#1566=CARTESIAN_POINT('',(-33.09647058825,-0.300000000000017,5.38492386231845));
#1567=CARTESIAN_POINT('',(-32.89647058825,-0.500000000000017,3.76834310858749));
#1568=CARTESIAN_POINT('Origin',(-31.54647058825,-0.400000000000017,6.74169699491407));
#1569=CARTESIAN_POINT('',(-31.09647058825,-0.500000000000017,6.88603456221147));
#1570=CARTESIAN_POINT('',(-31.49647058825,-0.500000000000017,6.65509445453563));
#1571=CARTESIAN_POINT('',(-31.09647058825,-0.300000000000017,7.11697466988733));
#1572=CARTESIAN_POINT('',(-31.09647058825,-0.500000000000017,6.88603456221147));
#1573=CARTESIAN_POINT('',(-31.59647058825,-0.300000000000017,6.82829953529251));
#1574=CARTESIAN_POINT('Origin',(-29.64647058825,-0.400000000000017,6.16434672572444));
#1575=CARTESIAN_POINT('',(-29.29647058825,-0.500000000000017,5.84680407767014));
#1576=CARTESIAN_POINT('',(-29.69647058825,-0.500000000000017,6.077744185346));
#1577=CARTESIAN_POINT('',(-29.09647058825,-0.300000000000017,5.96227413150807));
#1578=CARTESIAN_POINT('',(-29.29647058825,-0.500000000000017,5.84680407767014));
#1579=CARTESIAN_POINT('',(-29.59647058825,-0.300000000000017,6.25094926610289));
#1580=CARTESIAN_POINT('Origin',(-29.19647058825,-0.400000000000017,4.23022332393919));
#1581=CARTESIAN_POINT('',(-29.29647058825,-0.500000000000017,3.76834310858749));
#1582=CARTESIAN_POINT('',(-29.29647058825,-0.500000000000017,4.23022332393919));
#1583=CARTESIAN_POINT('',(-29.09647058825,-0.300000000000017,3.65287305474957));
#1584=CARTESIAN_POINT('',(-29.29647058825,-0.500000000000017,3.76834310858749));
#1585=CARTESIAN_POINT('',(-29.09647058825,-0.300000000000017,4.23022332393919));
#1586=CARTESIAN_POINT('Origin',(-30.64647058825,-0.400000000000017,2.87345019134357));
#1587=CARTESIAN_POINT('',(-31.09647058825,-0.300000000000017,2.49817251637031));
#1588=CARTESIAN_POINT('',(-30.59647058825,-0.300000000000017,2.78684765096513));
#1589=CARTESIAN_POINT('',(-31.09647058825,-0.500000000000017,2.72911262404616));
#1590=CARTESIAN_POINT('',(-30.69647058825,-0.500000000000017,2.96005273172201));
#1591=CARTESIAN_POINT('',(-31.09647058825,-0.500000000000017,2.72911262404616));
#1592=CARTESIAN_POINT('Origin',(-32.54647058825,-0.400000000000017,3.4508004605332));
#1593=CARTESIAN_POINT('',(-32.59647058825,-0.300000000000017,3.36419792015475));
#1594=CARTESIAN_POINT('',(-32.49647058825,-0.500000000000017,3.53740300091164));
#1595=CARTESIAN_POINT('Origin',(-31.09647058825,2.49999999999998,2.49817251637031));
#1596=CARTESIAN_POINT('',(-31.09647058825,2.49999999999998,2.49817251637031));
#1597=CARTESIAN_POINT('',(-31.09647058825,2.49999999999998,2.49817251637031));
#1598=CARTESIAN_POINT('',(-29.09647058825,2.49999999999998,3.65287305474957));
#1599=CARTESIAN_POINT('',(-26.0186783606224,2.49999999999998,5.42983722588011));
#1600=CARTESIAN_POINT('',(-29.09647058825,2.49999999999998,3.65287305474957));
#1601=CARTESIAN_POINT('Origin',(-33.09647058825,2.49999999999998,3.65287305474957));
#1602=CARTESIAN_POINT('',(-33.09647058825,2.49999999999998,3.65287305474957));
#1603=CARTESIAN_POINT('',(-33.09647058825,2.49999999999998,3.65287305474957));
#1604=CARTESIAN_POINT('',(-21.6717628158776,2.49999999999998,-2.94318505304244));
#1605=CARTESIAN_POINT('Origin',(-33.09647058825,2.49999999999998,5.96227413150807));
#1606=CARTESIAN_POINT('',(-33.09647058825,2.49999999999998,5.96227413150807));
#1607=CARTESIAN_POINT('',(-33.09647058825,2.49999999999998,5.96227413150807));
#1608=CARTESIAN_POINT('',(-33.09647058825,2.49999999999998,-1.94386293424596));
#1609=CARTESIAN_POINT('Origin',(-31.09647058825,-0.500000000000017,4.80757359312882));
#1610=CARTESIAN_POINT('Origin',(-31.09647058825,2.49999999999998,-2.49817251637029));
#1611=CARTESIAN_POINT('',(-31.09647058825,2.49999999999998,-2.49817251637029));
#1612=CARTESIAN_POINT('',(-31.09647058825,2.49999999999998,-2.49817251637029));
#1613=CARTESIAN_POINT('',(-24.936937929516,2.49999999999998,1.05803532223209));
#1614=CARTESIAN_POINT('Origin',(-29.09647058825,2.49999999999998,-3.65287305474954));
#1615=CARTESIAN_POINT('',(-29.09647058825,2.49999999999998,-3.65287305474954));
#1616=CARTESIAN_POINT('',(-29.09647058825,2.49999999999998,-3.65287305474954));
#1617=CARTESIAN_POINT('',(-20.753503246984,2.49999999999998,-8.46968749506973));
#1618=CARTESIAN_POINT('Origin',(-29.09647058825,2.49999999999998,-5.96227413150805));
#1619=CARTESIAN_POINT('',(-29.09647058825,2.49999999999998,-7.90613706575402));
#1620=CARTESIAN_POINT('Origin',(-31.09647058825,2.49999999999998,7.11697466988733));
#1621=CARTESIAN_POINT('',(-31.09647058825,2.49999999999998,7.11697466988733));
#1622=CARTESIAN_POINT('',(-31.09647058825,2.49999999999998,7.11697466988733));
#1623=CARTESIAN_POINT('',(-27.0186783606224,2.49999999999998,9.4712891102075));
#1624=CARTESIAN_POINT('Origin',(-29.09647058825,2.49999999999998,5.96227413150807));
#1625=CARTESIAN_POINT('',(-29.09647058825,2.49999999999998,5.96227413150807));
#1626=CARTESIAN_POINT('',(-29.09647058825,2.49999999999998,5.96227413150807));
#1627=CARTESIAN_POINT('',(-18.6717628158776,2.49999999999998,-0.0564337070943111));
#1628=CARTESIAN_POINT('Origin',(-29.09647058825,2.49999999999998,3.65287305474957));
#1629=CARTESIAN_POINT('',(-29.09647058825,2.49999999999998,-3.09856347262521));
#1630=CARTESIAN_POINT('Origin',(-15.45647058825,2.49999999999998,-7.1169746698873));
#1631=CARTESIAN_POINT('',(-15.45647058825,2.49999999999998,-7.1169746698873));
#1632=CARTESIAN_POINT('',(-15.45647058825,2.49999999999998,-7.1169746698873));
#1633=CARTESIAN_POINT('',(-14.161937929516,2.49999999999998,-6.36957589089245));
#1634=CARTESIAN_POINT('Origin',(-17.45647058825,2.49999999999998,-5.96227413150805));
#1635=CARTESIAN_POINT('',(-17.45647058825,2.49999999999998,-5.96227413150805));
#1636=CARTESIAN_POINT('',(-17.45647058825,2.49999999999998,-5.96227413150805));
#1637=CARTESIAN_POINT('',(-13.978503246984,2.49999999999998,-7.97027951222069));
#1638=CARTESIAN_POINT('Origin',(-17.45647058825,2.49999999999998,-3.65287305474954));
#1639=CARTESIAN_POINT('',(-17.45647058825,2.49999999999998,-6.75143652737476));
#1640=CARTESIAN_POINT('Origin',(-15.45647058825,2.49999999999998,7.11697466988732));
#1641=CARTESIAN_POINT('',(-15.45647058825,2.49999999999998,7.11697466988732));
#1642=CARTESIAN_POINT('',(-15.45647058825,2.49999999999998,7.11697466988732));
#1643=CARTESIAN_POINT('',(-17.2436783606224,2.49999999999998,6.08512978141034));
#1644=CARTESIAN_POINT('Origin',(-13.45647058825,2.49999999999998,5.96227413150807));
#1645=CARTESIAN_POINT('',(-13.45647058825,2.49999999999998,5.96227413150807));
#1646=CARTESIAN_POINT('',(-13.45647058825,2.49999999999998,5.96227413150807));
#1647=CARTESIAN_POINT('',(-8.89676281587763,2.49999999999998,3.32972562170285));
#1648=CARTESIAN_POINT('Origin',(-13.45647058825,2.49999999999998,3.65287305474957));
#1649=CARTESIAN_POINT('',(-13.45647058825,2.49999999999998,-3.09856347262521));
#1650=CARTESIAN_POINT('Origin',(-10.42647058825,5.52121320343558,-12.8287867965644));
#1651=CARTESIAN_POINT('',(-10.42647058825,2.49999999999998,-9.8075735931288));
#1652=CARTESIAN_POINT('Origin',(-10.42647058825,5.24999999999998,12.85));
#1653=CARTESIAN_POINT('Origin',(-10.42647058825,2.49999999999998,-9.84999999999999));
#1654=UNCERTAINTY_MEASURE_WITH_UNIT(LENGTH_MEASURE(0.01),#1658,
'DISTANCE_ACCURACY_VALUE',
'Maximum model space distance between geometric entities at asserted c
onnectivities');
#1655=UNCERTAINTY_MEASURE_WITH_UNIT(LENGTH_MEASURE(0.01),#1658,
'DISTANCE_ACCURACY_VALUE',
'Maximum model space distance between geometric entities at asserted c
onnectivities');
#1656=(
GEOMETRIC_REPRESENTATION_CONTEXT(3)
GLOBAL_UNCERTAINTY_ASSIGNED_CONTEXT((#1654))
GLOBAL_UNIT_ASSIGNED_CONTEXT((#1658,#1660,#1661))
REPRESENTATION_CONTEXT('','3D')
);
#1657=(
GEOMETRIC_REPRESENTATION_CONTEXT(3)
GLOBAL_UNCERTAINTY_ASSIGNED_CONTEXT((#1655))
GLOBAL_UNIT_ASSIGNED_CONTEXT((#1658,#1660,#1661))
REPRESENTATION_CONTEXT('','3D')
);
#1658=(
LENGTH_UNIT()
NAMED_UNIT(*)
SI_UNIT(.MILLI.,.METRE.)
);
#1659=(
LENGTH_UNIT()
NAMED_UNIT(*)
SI_UNIT($,.METRE.)
);
#1660=(
NAMED_UNIT(*)
PLANE_ANGLE_UNIT()
SI_UNIT($,.RADIAN.)
);
#1661=(
NAMED_UNIT(*)
SI_UNIT($,.STERADIAN.)
SOLID_ANGLE_UNIT()
);
#1662=SHAPE_DEFINITION_REPRESENTATION(#1663,#1664);
#1663=PRODUCT_DEFINITION_SHAPE('',$,#1666);
#1664=SHAPE_REPRESENTATION('',(#1050),#1656);
#1665=PRODUCT_DEFINITION_CONTEXT('part definition',#1670,'design');
#1666=PRODUCT_DEFINITION('2025-09-23-17-54-42-861',
'Handy Halter V3 Small - Einsatz V2',#1667,#1665);
#1667=PRODUCT_DEFINITION_FORMATION('',$,#1672);
#1668=PRODUCT_RELATED_PRODUCT_CATEGORY(
'Handy Halter V3 Small - Einsatz V2',
'Handy Halter V3 Small - Einsatz V2',(#1672));
#1669=APPLICATION_PROTOCOL_DEFINITION('international standard',
'automotive_design',2009,#1670);
#1670=APPLICATION_CONTEXT(
'Core Data for Automotive Mechanical Design Process');
#1671=PRODUCT_CONTEXT('part definition',#1670,'mechanical');
#1672=PRODUCT('2025-09-23-17-54-42-861',
'Handy Halter V3 Small - Einsatz V2',$,(#1671));
#1673=PRESENTATION_STYLE_ASSIGNMENT((#1675));
#1674=PRESENTATION_STYLE_ASSIGNMENT((#1676));
#1675=SURFACE_STYLE_USAGE(.BOTH.,#1677);
#1676=SURFACE_STYLE_USAGE(.BOTH.,#1678);
#1677=SURFACE_SIDE_STYLE('',(#1679));
#1678=SURFACE_SIDE_STYLE('',(#1680));
#1679=SURFACE_STYLE_FILL_AREA(#1681);
#1680=SURFACE_STYLE_FILL_AREA(#1682);
#1681=FILL_AREA_STYLE('ABS (Wei\X\DF)',(#1683));
#1682=FILL_AREA_STYLE('Kunststoff - matt (Grau)',(#1684));
#1683=FILL_AREA_STYLE_COLOUR('ABS (Wei\X\DF)',#1685);
#1684=FILL_AREA_STYLE_COLOUR('Kunststoff - matt (Grau)',#1686);
#1685=COLOUR_RGB('ABS (Wei\X\DF)',0.964705882352941,0.964705882352941,0.952941176470588);
#1686=COLOUR_RGB('Kunststoff - matt (Grau)',0.431372549019608,0.623529411764706,
0.733333333333333);
ENDSEC;
END-ISO-10303-21;
